<?xml version="1.0" encoding="UTF-8"?><svg xmlns="http://www.w3.org/2000/svg" xmlns:xlink="http://www.w3.org/1999/xlink" contentScriptType="text/ecmascript" width="375pt" zoomAndPan="magnify" contentStyleType="text/css" viewBox="0 0 375 374.999991" height="374.999991pt" preserveAspectRatio="xMidYMid meet" version="1.2"><defs><g/><clipPath xml:id="clip1" id="clip1"><path d="M 67.394531 171.917969 L 84.644531 171.917969 L 84.644531 190.667969 L 67.394531 190.667969 Z M 67.394531 171.917969 "/></clipPath><clipPath xml:id="clip2" id="clip2"><path d="M 290.296875 171.917969 L 307.546875 171.917969 L 307.546875 190.667969 L 290.296875 190.667969 Z M 290.296875 171.917969 "/></clipPath><clipPath xml:id="clip3" id="clip3"><path d="M 107 113.636719 L 265.945312 113.636719 L 265.945312 272.46875 L 107 272.46875 Z M 107 113.636719 "/></clipPath><clipPath xml:id="clip4" id="clip4"><path d="M 98.695312 184.152344 L 115.910156 184.152344 L 115.910156 201.863281 L 98.695312 201.863281 Z M 98.695312 184.152344 "/></clipPath><clipPath xml:id="clip5" id="clip5"><path d="M 107 112.886719 L 265.945312 112.886719 L 265.945312 271.71875 L 107 271.71875 Z M 107 112.886719 "/></clipPath><clipPath xml:id="clip6" id="clip6"><path d="M 98.695312 183.402344 L 115.910156 183.402344 L 115.910156 201 L 98.695312 201 Z M 98.695312 183.402344 "/></clipPath></defs><g xml:id="surface1" id="surface1"><g style="fill:rgb(30.589294%,44.709778%,62.348938%);fill-opacity:1;"><g transform="translate(74.345512, 208.792585)"><path style="stroke:none;" d="M 9.203125 2.09375 C 9.390625 3.050781 9.300781 3.835938 8.9375 4.453125 C 8.570312 5.066406 8.035156 5.441406 7.328125 5.578125 C 6.628906 5.722656 5.984375 5.597656 5.390625 5.203125 C 4.796875 4.816406 4.398438 4.117188 4.203125 3.109375 L 3.890625 1.578125 L 0.46875 2.28125 L 0.1875 0.90625 L 8.609375 -0.8125 Z M 4.953125 1.375 L 5.265625 2.90625 C 5.367188 3.4375 5.570312 3.800781 5.875 4 C 6.1875 4.207031 6.5625 4.265625 7 4.171875 C 7.445312 4.078125 7.769531 3.875 7.96875 3.5625 C 8.164062 3.257812 8.210938 2.84375 8.109375 2.3125 L 7.796875 0.78125 Z M 4.953125 1.375 "/></g></g><g style="fill:rgb(30.589294%,44.709778%,62.348938%);fill-opacity:1;"><g transform="translate(76.580552, 219.075732)"><path style="stroke:none;" d="M 4 1.21875 L 0.671875 2.234375 L 0.265625 0.875 L 8.484375 -1.625 L 9.34375 1.21875 C 9.632812 2.15625 9.625 2.945312 9.3125 3.59375 C 9 4.238281 8.488281 4.671875 7.78125 4.890625 C 7.238281 5.054688 6.691406 5.039062 6.140625 4.84375 C 5.597656 4.644531 5.15625 4.21875 4.8125 3.5625 L 2.046875 6.765625 L 1.5625 5.125 L 4.265625 2.046875 Z M 7.828125 0.0625 L 5.046875 0.90625 L 5.5 2.390625 C 5.65625 2.910156 5.894531 3.253906 6.21875 3.421875 C 6.550781 3.597656 6.929688 3.617188 7.359375 3.484375 C 7.796875 3.359375 8.097656 3.132812 8.265625 2.8125 C 8.429688 2.488281 8.4375 2.066406 8.28125 1.546875 Z M 7.828125 0.0625 "/></g></g><g style="fill:rgb(30.589294%,44.709778%,62.348938%);fill-opacity:1;"><g transform="translate(79.891502, 229.585992)"><path style="stroke:none;" d="M 2.96875 3.984375 C 3.3125 4.785156 3.847656 5.328125 4.578125 5.609375 C 5.316406 5.898438 6.113281 5.863281 6.96875 5.5 C 7.832031 5.132812 8.425781 4.585938 8.75 3.859375 C 9.070312 3.140625 9.0625 2.378906 8.71875 1.578125 C 8.382812 0.785156 7.84375 0.25 7.09375 -0.03125 C 6.351562 -0.320312 5.550781 -0.285156 4.6875 0.078125 C 3.832031 0.441406 3.25 0.984375 2.9375 1.703125 C 2.625 2.429688 2.632812 3.191406 2.96875 3.984375 Z M 1.796875 4.5 C 1.316406 3.363281 1.289062 2.242188 1.71875 1.140625 C 2.15625 0.046875 2.960938 -0.742188 4.140625 -1.234375 C 5.316406 -1.734375 6.453125 -1.753906 7.546875 -1.296875 C 8.640625 -0.835938 9.425781 -0.0390625 9.90625 1.09375 C 10.382812 2.226562 10.40625 3.347656 9.96875 4.453125 C 9.53125 5.554688 8.722656 6.351562 7.546875 6.84375 C 6.367188 7.34375 5.234375 7.359375 4.140625 6.890625 C 3.054688 6.429688 2.273438 5.632812 1.796875 4.5 Z M 1.796875 4.5 "/></g></g><g style="fill:rgb(30.589294%,44.709778%,62.348938%);fill-opacity:1;"><g transform="translate(85.099838, 241.364517)"><path style="stroke:none;" d="M 4.09375 2.53125 L 9.546875 -0.4375 L 10.234375 0.8125 L 4.78125 3.78125 C 4.113281 4.144531 3.472656 4.226562 2.859375 4.03125 C 2.242188 3.84375 1.753906 3.414062 1.390625 2.75 C 1.023438 2.082031 0.925781 1.4375 1.09375 0.8125 C 1.269531 0.195312 1.691406 -0.289062 2.359375 -0.65625 L 3.03125 0.59375 C 2.71875 0.78125 2.503906 1.003906 2.390625 1.265625 C 2.285156 1.535156 2.316406 1.832031 2.484375 2.15625 C 2.660156 2.476562 2.894531 2.664062 3.1875 2.71875 C 3.476562 2.769531 3.78125 2.707031 4.09375 2.53125 Z M 4.09375 2.53125 "/></g></g><g style="fill:rgb(30.589294%,44.709778%,62.348938%);fill-opacity:1;"><g transform="translate(90.067037, 250.172935)"><path style="stroke:none;" d="M 10.296875 -0.015625 L 9.375 0.59375 L 7.53125 -2.203125 L 5.359375 -0.765625 L 7 1.71875 L 6.09375 2.3125 L 4.453125 -0.171875 L 2.1875 1.328125 L 4.03125 4.125 L 3.125 4.734375 L 0.515625 0.765625 L 7.6875 -3.984375 Z M 10.296875 -0.015625 "/></g></g><g style="fill:rgb(30.589294%,44.709778%,62.348938%);fill-opacity:1;"><g transform="translate(95.467626, 258.186474)"><path style="stroke:none;" d="M 3 3.8125 C 2.21875 2.851562 1.878906 1.785156 1.984375 0.609375 C 2.085938 -0.554688 2.632812 -1.539062 3.625 -2.34375 C 4.613281 -3.15625 5.695312 -3.492188 6.875 -3.359375 C 8.050781 -3.222656 9.03125 -2.675781 9.8125 -1.71875 C 10.382812 -1.007812 10.722656 -0.238281 10.828125 0.59375 C 10.929688 1.425781 10.765625 2.226562 10.328125 3 L 9.25 1.6875 C 9.632812 0.78125 9.492188 -0.0859375 8.828125 -0.921875 C 8.273438 -1.597656 7.601562 -1.960938 6.8125 -2.015625 C 6.019531 -2.078125 5.257812 -1.8125 4.53125 -1.21875 C 3.8125 -0.632812 3.40625 0.0390625 3.3125 0.8125 C 3.21875 1.59375 3.445312 2.320312 4 3 C 4.664062 3.832031 5.476562 4.15625 6.4375 3.96875 L 7.515625 5.28125 C 6.671875 5.550781 5.847656 5.550781 5.046875 5.28125 C 4.253906 5.007812 3.570312 4.519531 3 3.8125 Z M 3 3.8125 "/></g></g><g style="fill:rgb(30.589294%,44.709778%,62.348938%);fill-opacity:1;"><g transform="translate(103.67528, 267.93006)"><path style="stroke:none;" d="M 5.65625 -4.9375 L 6.4375 -5.71875 L 10.65625 -1.46875 L 9.875 -0.6875 L 8.265625 -2.3125 L 2.953125 2.96875 L 1.953125 1.96875 L 7.265625 -3.3125 Z M 5.65625 -4.9375 "/></g></g><g style="fill:rgb(30.589294%,44.709778%,62.348938%);fill-opacity:1;"><g transform="translate(116.07182, 279.375222)"><path style="stroke:none;" d="M 4.875 -5.703125 L 5.53125 -6.59375 L 10.328125 -3.015625 L 9.671875 -2.125 L 7.84375 -3.5 L 3.359375 2.5 L 2.234375 1.671875 L 6.71875 -4.328125 Z M 4.875 -5.703125 "/></g></g><g style="fill:rgb(30.589294%,44.709778%,62.348938%);fill-opacity:1;"><g transform="translate(124.270844, 285.385508)"><path style="stroke:none;" d="M 4.765625 1.484375 C 5.503906 1.929688 6.253906 2.050781 7.015625 1.84375 C 7.785156 1.632812 8.410156 1.128906 8.890625 0.328125 C 9.367188 -0.472656 9.519531 -1.257812 9.34375 -2.03125 C 9.175781 -2.800781 8.722656 -3.410156 7.984375 -3.859375 C 7.242188 -4.304688 6.488281 -4.425781 5.71875 -4.21875 C 4.957031 -4.007812 4.335938 -3.503906 3.859375 -2.703125 C 3.378906 -1.898438 3.222656 -1.113281 3.390625 -0.34375 C 3.566406 0.425781 4.023438 1.035156 4.765625 1.484375 Z M 4.109375 2.578125 C 3.054688 1.941406 2.378906 1.050781 2.078125 -0.09375 C 1.773438 -1.238281 1.953125 -2.359375 2.609375 -3.453125 C 3.265625 -4.546875 4.171875 -5.226562 5.328125 -5.5 C 6.484375 -5.769531 7.585938 -5.585938 8.640625 -4.953125 C 9.703125 -4.316406 10.378906 -3.425781 10.671875 -2.28125 C 10.960938 -1.132812 10.78125 -0.015625 10.125 1.078125 C 9.46875 2.171875 8.566406 2.851562 7.421875 3.125 C 6.273438 3.394531 5.171875 3.210938 4.109375 2.578125 Z M 4.109375 2.578125 "/></g></g><g style="fill:rgb(30.589294%,44.709778%,62.348938%);fill-opacity:1;"><g transform="translate(141.539936, 294.727684)"><path style="stroke:none;" d="M 6.140625 -5.6875 C 5.742188 -5.84375 5.382812 -5.863281 5.0625 -5.75 C 4.738281 -5.644531 4.5 -5.40625 4.34375 -5.03125 C 4.195312 -4.65625 4.226562 -4.3125 4.4375 -4 C 4.65625 -3.6875 4.953125 -3.398438 5.328125 -3.140625 C 5.710938 -2.878906 6.082031 -2.609375 6.4375 -2.328125 C 6.800781 -2.046875 7.0625 -1.6875 7.21875 -1.25 C 7.382812 -0.820312 7.347656 -0.316406 7.109375 0.265625 C 6.878906 0.859375 6.421875 1.289062 5.734375 1.5625 C 5.054688 1.84375 4.300781 1.816406 3.46875 1.484375 C 2.632812 1.148438 2.035156 0.679688 1.671875 0.078125 C 1.304688 -0.523438 1.257812 -1.171875 1.53125 -1.859375 L 2.9375 -1.296875 C 2.832031 -0.921875 2.851562 -0.582031 3 -0.28125 C 3.144531 0.0078125 3.4375 0.242188 3.875 0.421875 C 4.320312 0.597656 4.71875 0.617188 5.0625 0.484375 C 5.414062 0.359375 5.65625 0.140625 5.78125 -0.171875 C 5.90625 -0.484375 5.921875 -0.757812 5.828125 -1 C 5.742188 -1.238281 5.59375 -1.445312 5.375 -1.625 C 5.164062 -1.8125 4.925781 -2 4.65625 -2.1875 C 4.382812 -2.375 4.113281 -2.570312 3.84375 -2.78125 C 3.582031 -3 3.351562 -3.226562 3.15625 -3.46875 C 2.96875 -3.71875 2.851562 -4.015625 2.8125 -4.359375 C 2.769531 -4.710938 2.828125 -5.09375 2.984375 -5.5 C 3.265625 -6.195312 3.738281 -6.65625 4.40625 -6.875 C 5.082031 -7.09375 5.816406 -7.039062 6.609375 -6.71875 C 7.410156 -6.40625 7.972656 -5.96875 8.296875 -5.40625 C 8.628906 -4.851562 8.691406 -4.21875 8.484375 -3.5 L 7.03125 -4.078125 C 7.125 -4.398438 7.097656 -4.707031 6.953125 -5 C 6.804688 -5.300781 6.535156 -5.53125 6.140625 -5.6875 Z M 6.140625 -5.6875 "/></g></g><g style="fill:rgb(30.589294%,44.709778%,62.348938%);fill-opacity:1;"><g transform="translate(151.477641, 298.559469)"><path style="stroke:none;" d="M 8.515625 -6.484375 L 9.859375 -6.09375 L 7.46875 2.15625 L 6.125 1.765625 L 7.1875 -1.875 L 3.296875 -3 L 2.234375 0.640625 L 0.890625 0.25 L 3.28125 -8 L 4.625 -7.609375 L 3.59375 -4.046875 L 7.484375 -2.921875 Z M 8.515625 -6.484375 "/></g></g><g style="fill:rgb(30.589294%,44.709778%,62.348938%);fill-opacity:1;"><g transform="translate(162.980873, 301.735745)"><path style="stroke:none;" d="M 4.96875 -0.328125 C 5.820312 -0.179688 6.566406 -0.34375 7.203125 -0.8125 C 7.847656 -1.28125 8.25 -1.972656 8.40625 -2.890625 C 8.570312 -3.816406 8.429688 -4.609375 7.984375 -5.265625 C 7.546875 -5.921875 6.898438 -6.320312 6.046875 -6.46875 C 5.203125 -6.625 4.457031 -6.46875 3.8125 -6 C 3.175781 -5.53125 2.773438 -4.832031 2.609375 -3.90625 C 2.453125 -2.988281 2.59375 -2.203125 3.03125 -1.546875 C 3.476562 -0.890625 4.125 -0.484375 4.96875 -0.328125 Z M 4.765625 0.921875 C 3.546875 0.710938 2.585938 0.128906 1.890625 -0.828125 C 1.203125 -1.796875 0.96875 -2.90625 1.1875 -4.15625 C 1.414062 -5.414062 2.015625 -6.378906 2.984375 -7.046875 C 3.960938 -7.722656 5.0625 -7.953125 6.28125 -7.734375 C 7.5 -7.523438 8.453125 -6.9375 9.140625 -5.96875 C 9.828125 -5.007812 10.054688 -3.898438 9.828125 -2.640625 C 9.609375 -1.390625 9.015625 -0.429688 8.046875 0.234375 C 7.078125 0.910156 5.984375 1.140625 4.765625 0.921875 Z M 4.765625 0.921875 "/></g></g><g style="fill:rgb(30.589294%,44.709778%,62.348938%);fill-opacity:1;"><g transform="translate(175.777172, 303.856672)"><path style="stroke:none;" d="M 11.015625 -8.0625 L 12.515625 -7.984375 L 9.546875 0.46875 L 7.953125 0.390625 L 6.484375 -6.1875 L 4.25 0.203125 L 2.671875 0.140625 L 0.65625 -8.5625 L 2.15625 -8.5 L 3.59375 -1.421875 L 5.859375 -8.3125 L 7.421875 -8.234375 L 8.875 -1.1875 Z M 11.015625 -8.0625 "/></g></g><g style="fill:rgb(30.589294%,44.709778%,62.348938%);fill-opacity:1;"><g transform="translate(191.38568, 304.335184)"><path style="stroke:none;" d="M 4.828125 -0.28125 C 3.597656 -0.1875 2.53125 -0.519531 1.625 -1.28125 C 0.726562 -2.039062 0.226562 -3.054688 0.125 -4.328125 C 0.03125 -5.597656 0.375 -6.675781 1.15625 -7.5625 C 1.9375 -8.445312 2.941406 -8.9375 4.171875 -9.03125 C 5.085938 -9.101562 5.921875 -8.941406 6.671875 -8.546875 C 7.421875 -8.160156 7.984375 -7.566406 8.359375 -6.765625 L 6.671875 -6.640625 C 6.148438 -7.472656 5.351562 -7.847656 4.28125 -7.765625 C 3.414062 -7.703125 2.734375 -7.363281 2.234375 -6.75 C 1.734375 -6.132812 1.515625 -5.359375 1.578125 -4.421875 C 1.648438 -3.492188 1.976562 -2.769531 2.5625 -2.25 C 3.144531 -1.726562 3.867188 -1.5 4.734375 -1.5625 C 5.804688 -1.644531 6.539062 -2.132812 6.9375 -3.03125 L 8.625 -3.15625 C 8.375 -2.3125 7.90625 -1.640625 7.21875 -1.140625 C 6.539062 -0.640625 5.742188 -0.351562 4.828125 -0.28125 Z M 4.828125 -0.28125 "/></g></g><g style="fill:rgb(30.589294%,44.709778%,62.348938%);fill-opacity:1;"><g transform="translate(204.101556, 303.186306)"><path style="stroke:none;" d="M 6.609375 -1.21875 L 5.703125 -2.828125 L 2.15625 -2.171875 L 1.859375 -0.34375 L 0.421875 -0.078125 L 1.875 -9.09375 L 3.484375 -9.390625 L 8.0625 -1.484375 Z M 2.328125 -3.328125 L 5.109375 -3.84375 L 2.984375 -7.5625 Z M 2.328125 -3.328125 "/></g></g><g style="fill:rgb(30.589294%,44.709778%,62.348938%);fill-opacity:1;"><g transform="translate(215.668716, 300.874034)"><path style="stroke:none;" d="M 1.375 -8.234375 C 0.976562 -8.117188 0.679688 -7.921875 0.484375 -7.640625 C 0.285156 -7.367188 0.242188 -7.035156 0.359375 -6.640625 C 0.472656 -6.253906 0.707031 -6 1.0625 -5.875 C 1.414062 -5.757812 1.820312 -5.71875 2.28125 -5.75 C 2.738281 -5.78125 3.195312 -5.789062 3.65625 -5.78125 C 4.125 -5.78125 4.550781 -5.660156 4.9375 -5.421875 C 5.332031 -5.179688 5.617188 -4.753906 5.796875 -4.140625 C 5.972656 -3.523438 5.875 -2.898438 5.5 -2.265625 C 5.125 -1.628906 4.503906 -1.1875 3.640625 -0.9375 C 2.785156 -0.695312 2.023438 -0.703125 1.359375 -0.953125 C 0.703125 -1.203125 0.273438 -1.679688 0.078125 -2.390625 L 1.53125 -2.8125 C 1.664062 -2.46875 1.882812 -2.21875 2.1875 -2.0625 C 2.488281 -1.914062 2.867188 -1.90625 3.328125 -2.03125 C 3.785156 -2.164062 4.109375 -2.394531 4.296875 -2.71875 C 4.492188 -3.039062 4.546875 -3.363281 4.453125 -3.6875 C 4.359375 -4.007812 4.203125 -4.238281 3.984375 -4.375 C 3.773438 -4.507812 3.523438 -4.582031 3.234375 -4.59375 C 2.953125 -4.601562 2.648438 -4.597656 2.328125 -4.578125 C 2.003906 -4.566406 1.671875 -4.5625 1.328125 -4.5625 C 0.984375 -4.570312 0.660156 -4.613281 0.359375 -4.6875 C 0.0664062 -4.757812 -0.203125 -4.914062 -0.453125 -5.15625 C -0.703125 -5.40625 -0.882812 -5.742188 -1 -6.171875 C -1.207031 -6.890625 -1.113281 -7.539062 -0.71875 -8.125 C -0.332031 -8.71875 0.269531 -9.128906 1.09375 -9.359375 C 1.925781 -9.597656 2.644531 -9.597656 3.25 -9.359375 C 3.851562 -9.117188 4.289062 -8.648438 4.5625 -7.953125 L 3.0625 -7.53125 C 2.9375 -7.84375 2.722656 -8.066406 2.421875 -8.203125 C 2.128906 -8.347656 1.78125 -8.359375 1.375 -8.234375 Z M 1.375 -8.234375 "/></g></g><g style="fill:rgb(30.589294%,44.709778%,62.348938%);fill-opacity:1;"><g transform="translate(225.8259, 297.792952)"><path style="stroke:none;" d="M 2.203125 -10.0625 L 2.609375 -9.03125 L -0.515625 -7.84375 L 0.421875 -5.40625 L 3.1875 -6.46875 L 3.5625 -5.46875 L 0.796875 -4.40625 L 1.78125 -1.859375 L 4.90625 -3.046875 L 5.296875 -2.03125 L 0.859375 -0.328125 L -2.234375 -8.359375 Z M 2.203125 -10.0625 "/></g></g><g style="fill:rgb(30.589294%,44.709778%,62.348938%);fill-opacity:1;"><g transform="translate(240.849102, 291.265653)"><path style="stroke:none;" d="M 3.875 -2.1875 L 2.65625 -1.5 L 1.125 -4.203125 L -4.078125 -7.578125 L -2.71875 -8.34375 L 1.078125 -5.671875 L 0.734375 -10.296875 L 2.125 -11.078125 L 2.34375 -4.890625 Z M 3.875 -2.1875 "/></g></g><g style="fill:rgb(30.589294%,44.709778%,62.348938%);fill-opacity:1;"><g transform="translate(250.092635, 285.916228)"><path style="stroke:none;" d="M 3.25 -3.765625 C 3.957031 -4.265625 4.367188 -4.90625 4.484375 -5.6875 C 4.597656 -6.476562 4.382812 -7.253906 3.84375 -8.015625 C 3.3125 -8.773438 2.65625 -9.226562 1.875 -9.375 C 1.09375 -9.519531 0.351562 -9.34375 -0.34375 -8.84375 C -1.050781 -8.34375 -1.460938 -7.703125 -1.578125 -6.921875 C -1.691406 -6.148438 -1.476562 -5.382812 -0.9375 -4.625 C -0.40625 -3.863281 0.25 -3.40625 1.03125 -3.25 C 1.8125 -3.09375 2.550781 -3.265625 3.25 -3.765625 Z M 4 -2.71875 C 3 -2.007812 1.910156 -1.75 0.734375 -1.9375 C -0.429688 -2.125 -1.378906 -2.738281 -2.109375 -3.78125 C -2.847656 -4.820312 -3.109375 -5.921875 -2.890625 -7.078125 C -2.679688 -8.242188 -2.070312 -9.179688 -1.0625 -9.890625 C -0.0625 -10.609375 1.019531 -10.875 2.1875 -10.6875 C 3.351562 -10.507812 4.300781 -9.898438 5.03125 -8.859375 C 5.769531 -7.816406 6.035156 -6.710938 5.828125 -5.546875 C 5.617188 -4.378906 5.007812 -3.4375 4 -2.71875 Z M 4 -2.71875 "/></g></g><g style="fill:rgb(30.589294%,44.709778%,62.348938%);fill-opacity:1;"><g transform="translate(260.49653, 278.282561)"><path style="stroke:none;" d="M -1.390625 -2.96875 L -5.015625 -7.046875 L -3.953125 -7.984375 L -0.328125 -3.90625 C 0.109375 -3.40625 0.554688 -3.144531 1.015625 -3.125 C 1.484375 -3.101562 1.945312 -3.296875 2.40625 -3.703125 C 2.875 -4.109375 3.128906 -4.546875 3.171875 -5.015625 C 3.210938 -5.492188 3.015625 -5.984375 2.578125 -6.484375 L -1.046875 -10.5625 L 0 -11.484375 L 3.625 -7.40625 C 4.3125 -6.625 4.597656 -5.8125 4.484375 -4.96875 C 4.378906 -4.125 3.96875 -3.382812 3.25 -2.75 C 2.53125 -2.113281 1.75 -1.789062 0.90625 -1.78125 C 0.0703125 -1.78125 -0.691406 -2.175781 -1.390625 -2.96875 Z M -1.390625 -2.96875 "/></g></g><g style="fill:rgb(30.589294%,44.709778%,62.348938%);fill-opacity:1;"><g transform="translate(269.151056, 270.388727)"><path style="stroke:none;" d="M -0.984375 -4.078125 L 1.578125 -1.703125 L 0.625 -0.671875 L -5.671875 -6.515625 L -3.65625 -8.703125 C -2.988281 -9.421875 -2.296875 -9.804688 -1.578125 -9.859375 C -0.867188 -9.921875 -0.242188 -9.695312 0.296875 -9.1875 C 0.710938 -8.800781 0.96875 -8.320312 1.0625 -7.75 C 1.164062 -7.175781 1.023438 -6.578125 0.640625 -5.953125 L 4.796875 -5.1875 L 3.640625 -3.9375 L -0.390625 -4.71875 Z M -3.90625 -6.796875 L -1.78125 -4.8125 L -0.71875 -5.96875 C -0.34375 -6.363281 -0.160156 -6.742188 -0.171875 -7.109375 C -0.191406 -7.472656 -0.363281 -7.804688 -0.6875 -8.109375 C -1.019531 -8.421875 -1.367188 -8.570312 -1.734375 -8.5625 C -2.097656 -8.550781 -2.46875 -8.347656 -2.84375 -7.953125 Z M -3.90625 -6.796875 "/></g></g><g style="fill:rgb(30.589294%,44.709778%,62.348938%);fill-opacity:1;"><g transform="translate(280.6243, 256.868065)"><path style="stroke:none;" d="M -4.234375 -7.203125 C -4.472656 -6.847656 -4.578125 -6.503906 -4.546875 -6.171875 C -4.515625 -5.835938 -4.332031 -5.554688 -4 -5.328125 C -3.664062 -5.097656 -3.320312 -5.050781 -2.96875 -5.1875 C -2.625 -5.332031 -2.28125 -5.5625 -1.9375 -5.875 C -1.601562 -6.1875 -1.257812 -6.488281 -0.90625 -6.78125 C -0.550781 -7.082031 -0.144531 -7.265625 0.3125 -7.328125 C 0.78125 -7.390625 1.273438 -7.242188 1.796875 -6.890625 C 2.328125 -6.535156 2.648438 -5.992188 2.765625 -5.265625 C 2.878906 -4.546875 2.6875 -3.8125 2.1875 -3.0625 C 1.6875 -2.320312 1.101562 -1.835938 0.4375 -1.609375 C -0.226562 -1.378906 -0.867188 -1.472656 -1.484375 -1.890625 L -0.625 -3.140625 C -0.300781 -2.960938 0.0195312 -2.914062 0.34375 -3 C 0.664062 -3.082031 0.957031 -3.316406 1.21875 -3.703125 C 1.488281 -4.097656 1.597656 -4.476562 1.546875 -4.84375 C 1.503906 -5.207031 1.34375 -5.484375 1.0625 -5.671875 C 0.78125 -5.867188 0.515625 -5.945312 0.265625 -5.90625 C 0.015625 -5.875 -0.222656 -5.769531 -0.453125 -5.59375 C -0.679688 -5.425781 -0.910156 -5.234375 -1.140625 -5.015625 C -1.378906 -4.796875 -1.632812 -4.578125 -1.90625 -4.359375 C -2.175781 -4.148438 -2.445312 -3.972656 -2.71875 -3.828125 C -3 -3.691406 -3.3125 -3.640625 -3.65625 -3.671875 C -4.007812 -3.703125 -4.367188 -3.835938 -4.734375 -4.078125 C -5.359375 -4.503906 -5.703125 -5.066406 -5.765625 -5.765625 C -5.835938 -6.472656 -5.632812 -7.179688 -5.15625 -7.890625 C -4.675781 -8.609375 -4.128906 -9.066406 -3.515625 -9.265625 C -2.910156 -9.472656 -2.273438 -9.394531 -1.609375 -9.03125 L -2.484375 -7.734375 C -2.773438 -7.890625 -3.078125 -7.925781 -3.390625 -7.84375 C -3.710938 -7.769531 -3.992188 -7.554688 -4.234375 -7.203125 Z M -4.234375 -7.203125 "/></g></g><g style="fill:rgb(30.589294%,44.709778%,62.348938%);fill-opacity:1;"><g transform="translate(286.464391, 247.979906)"><path style="stroke:none;" d="M 1.109375 -2.046875 L 0.4375 -0.8125 L -7.109375 -4.9375 L -6.4375 -6.171875 L -2.984375 -4.28125 L -4.828125 -9.109375 L -3.9375 -10.71875 L -2 -5.234375 L 3.609375 -6.59375 L 2.71875 -4.96875 L -2.265625 -3.890625 Z M 1.109375 -2.046875 "/></g></g><g style="fill:rgb(30.589294%,44.709778%,62.348938%);fill-opacity:1;"><g transform="translate(291.525877, 238.295693)"><path style="stroke:none;" d="M 0.375 -0.84375 L -7.453125 -4.390625 L -6.875 -5.671875 L 0.953125 -2.125 Z M 0.375 -0.84375 "/></g></g><g style="fill:rgb(30.589294%,44.709778%,62.348938%);fill-opacity:1;"><g transform="translate(294.076994, 232.492833)"><path style="stroke:none;" d="M -7.71875 -3.890625 L -7.234375 -5.203125 L -0.203125 -2.546875 L 0.828125 -5.28125 L 1.84375 -4.90625 L 0.328125 -0.859375 Z M -7.71875 -3.890625 "/></g></g><g style="fill:rgb(30.589294%,44.709778%,62.348938%);fill-opacity:1;"><g transform="translate(296.9948, 224.410486)"><path style="stroke:none;" d="M -7.984375 -3.3125 L -7.59375 -4.65625 L -0.375 -2.53125 L 0.4375 -5.3125 L 1.46875 -5.015625 L 0.265625 -0.890625 Z M -7.984375 -3.3125 "/></g></g><g style="fill:rgb(30.589294%,44.709778%,62.348938%);fill-opacity:1;"><g transform="translate(299.336086, 216.111269)"><path style="stroke:none;" d="M -6.671875 -5.046875 C -6.753906 -4.628906 -6.71875 -4.265625 -6.5625 -3.953125 C -6.40625 -3.648438 -6.128906 -3.457031 -5.734375 -3.375 C -5.335938 -3.300781 -5 -3.394531 -4.71875 -3.65625 C -4.445312 -3.925781 -4.21875 -4.269531 -4.03125 -4.6875 C -3.851562 -5.101562 -3.65625 -5.515625 -3.4375 -5.921875 C -3.21875 -6.335938 -2.910156 -6.660156 -2.515625 -6.890625 C -2.117188 -7.128906 -1.609375 -7.179688 -0.984375 -7.046875 C -0.359375 -6.921875 0.144531 -6.546875 0.53125 -5.921875 C 0.914062 -5.296875 1.019531 -4.546875 0.84375 -3.671875 C 0.664062 -2.796875 0.316406 -2.125 -0.203125 -1.65625 C -0.734375 -1.1875 -1.363281 -1.023438 -2.09375 -1.171875 L -1.78125 -2.65625 C -1.414062 -2.613281 -1.097656 -2.691406 -0.828125 -2.890625 C -0.554688 -3.085938 -0.375 -3.414062 -0.28125 -3.875 C -0.1875 -4.34375 -0.234375 -4.738281 -0.421875 -5.0625 C -0.609375 -5.382812 -0.863281 -5.578125 -1.1875 -5.640625 C -1.519531 -5.710938 -1.796875 -5.6875 -2.015625 -5.5625 C -2.242188 -5.4375 -2.425781 -5.25 -2.5625 -5 C -2.707031 -4.757812 -2.847656 -4.488281 -2.984375 -4.1875 C -3.117188 -3.894531 -3.269531 -3.59375 -3.4375 -3.28125 C -3.601562 -2.976562 -3.785156 -2.710938 -3.984375 -2.484375 C -4.191406 -2.253906 -4.460938 -2.085938 -4.796875 -1.984375 C -5.128906 -1.878906 -5.507812 -1.867188 -5.9375 -1.953125 C -6.675781 -2.109375 -7.210938 -2.492188 -7.546875 -3.109375 C -7.890625 -3.734375 -7.972656 -4.46875 -7.796875 -5.3125 C -7.628906 -6.15625 -7.296875 -6.789062 -6.796875 -7.21875 C -6.304688 -7.644531 -5.691406 -7.8125 -4.953125 -7.71875 L -5.265625 -6.203125 C -5.585938 -6.234375 -5.878906 -6.148438 -6.140625 -5.953125 C -6.410156 -5.765625 -6.585938 -5.460938 -6.671875 -5.046875 Z M -6.671875 -5.046875 "/></g></g><g clip-rule="nonzero" clip-path="url(#clip1)"><path style=" stroke:none;fill-rule:nonzero;fill:rgb(92.158508%,58.039856%,50.588989%);fill-opacity:1;" d="M 67.425781 181.097656 L 67.53125 181.066406 C 71.542969 179.808594 74.644531 176.652344 75.808594 172.667969 L 76.019531 171.917969 L 76.234375 172.667969 C 77.390625 176.652344 80.5 179.800781 84.511719 181.0625 L 84.617188 181.089844 C 80.554688 182.375 77.421875 185.597656 76.304688 189.65625 L 76.027344 190.667969 L 75.753906 189.65625 C 74.628906 185.597656 71.488281 182.375 67.425781 181.097656 Z M 67.425781 181.097656 "/></g><g clip-rule="nonzero" clip-path="url(#clip2)"><path style=" stroke:none;fill-rule:nonzero;fill:rgb(92.158508%,58.039856%,50.588989%);fill-opacity:1;" d="M 290.328125 181.097656 L 290.433594 181.066406 C 294.445312 179.808594 297.546875 176.652344 298.710938 172.667969 L 298.921875 171.917969 L 299.136719 172.667969 C 300.292969 176.652344 303.402344 179.800781 307.414062 181.0625 L 307.519531 181.089844 C 303.453125 182.375 300.324219 185.597656 299.207031 189.65625 L 298.929688 190.667969 L 298.65625 189.65625 C 297.53125 185.597656 294.390625 182.375 290.328125 181.097656 Z M 290.328125 181.097656 "/></g><g style="fill:rgb(30.589294%,44.709778%,62.348938%);fill-opacity:1;"><g transform="translate(100.65832, 142.246572)"><path style="stroke:none;" d="M 0.355469 -1.363281 C 0.582031 -1.21875 0.804688 -1.269531 0.945312 -1.496094 L 2.441406 -3.851562 C 2.597656 -4.101562 2.535156 -4.300781 2.308594 -4.445312 L -3.402344 -8.058594 L -1.679688 -10.777344 C -0.332031 -12.910156 -0.769531 -14.773438 -2.875 -16.109375 L -8.40625 -19.609375 C -10.535156 -20.960938 -12.386719 -20.542969 -13.734375 -18.414062 L -17.179688 -12.976562 C -17.320312 -12.75 -17.273438 -12.527344 -17.046875 -12.382812 Z M -6.394531 -9.953125 L -12.464844 -13.800781 L -11.203125 -15.792969 C -10.816406 -16.40625 -10.3125 -16.5 -9.722656 -16.128906 L -5.464844 -13.429688 C -4.898438 -13.070312 -4.742188 -12.558594 -5.128906 -11.949219 Z M -6.394531 -9.953125 "/></g></g><g style="fill:rgb(30.589294%,44.709778%,62.348938%);fill-opacity:1;"><g transform="translate(109.66135, 128.492114)"><path style="stroke:none;" d="M -4.816406 -20.957031 C -6.691406 -22.644531 -8.585938 -22.542969 -10.273438 -20.667969 L -14.773438 -15.660156 C -14.953125 -15.460938 -14.941406 -15.234375 -14.742188 -15.054688 L 0.578125 -1.285156 C 0.777344 -1.105469 1.003906 -1.117188 1.183594 -1.316406 L 3.046875 -3.390625 C 3.226562 -3.589844 3.214844 -3.816406 3.015625 -3.996094 L -2.011719 -8.515625 L -0.773438 -9.890625 L 5.496094 -6.671875 C 5.710938 -6.550781 5.898438 -6.5625 6.078125 -6.761719 L 7.941406 -8.835938 C 8.140625 -9.054688 8.128906 -9.28125 7.835938 -9.4375 L 1.371094 -12.757812 C 1.8125 -14.09375 1.386719 -15.378906 0.046875 -16.582031 Z M -4.644531 -10.882812 L -9.988281 -15.6875 L -8.214844 -17.660156 C -7.746094 -18.179688 -7.214844 -18.207031 -6.699219 -17.742188 L -2.949219 -14.371094 C -2.429688 -13.90625 -2.402344 -13.375 -2.867188 -12.855469 Z M -4.644531 -10.882812 "/></g></g><g style="fill:rgb(30.589294%,44.709778%,62.348938%);fill-opacity:1;"><g transform="translate(121.044598, 116.223804)"><path style="stroke:none;" d="M -1.351562 -3.859375 C 0.214844 -1.882812 2.101562 -1.667969 4.074219 -3.234375 L 6.429688 -5.101562 C 8.402344 -6.667969 8.621094 -8.554688 7.050781 -10.527344 L -1.484375 -21.285156 C -3.050781 -23.257812 -4.9375 -23.476562 -6.910156 -21.90625 L -9.265625 -20.039062 C -11.238281 -18.472656 -11.453125 -16.589844 -9.886719 -14.613281 Z M 2.535156 -6.429688 C 1.988281 -5.996094 1.476562 -6.035156 1.027344 -6.601562 L -6.675781 -16.308594 C -7.109375 -16.851562 -7.050781 -17.378906 -6.503906 -17.8125 L -5.285156 -18.78125 C -4.738281 -19.214844 -4.210938 -19.152344 -3.777344 -18.609375 L 3.925781 -8.902344 C 4.375 -8.335938 4.296875 -7.828125 3.753906 -7.394531 Z M 2.535156 -6.429688 "/></g></g><g style="fill:rgb(30.589294%,44.709778%,62.348938%);fill-opacity:1;"><g transform="translate(134.088383, 106.194588)"><path style="stroke:none;" d="M 5.140625 -8.109375 C 5.480469 -7.5 5.332031 -6.988281 4.722656 -6.652344 L 3.5 -5.976562 C 2.890625 -5.640625 2.378906 -5.789062 2.042969 -6.398438 L 1.058594 -8.183594 C 0.925781 -8.417969 0.707031 -8.480469 0.472656 -8.351562 L -1.875 -7.054688 C -2.132812 -6.910156 -2.171875 -6.707031 -2.042969 -6.46875 L -0.695312 -4.027344 C 0.527344 -1.820312 2.347656 -1.296875 4.554688 -2.515625 L 7.183594 -3.96875 C 9.367188 -5.171875 9.917969 -7.007812 8.699219 -9.214844 L 0.398438 -24.242188 C 0.269531 -24.476562 0.0507812 -24.539062 -0.183594 -24.410156 L -2.625 -23.0625 C -2.882812 -22.917969 -2.925781 -22.710938 -2.792969 -22.476562 Z M 5.140625 -8.109375 "/></g></g><g style="fill:rgb(30.589294%,44.709778%,62.348938%);fill-opacity:1;"><g transform="translate(148.613857, 98.463628)"><path style="stroke:none;" d="M 4.378906 -23.832031 C 4.289062 -24.085938 4.132812 -24.203125 3.832031 -24.09375 L -5.480469 -20.816406 C -5.707031 -20.738281 -5.804688 -20.53125 -5.714844 -20.277344 L 1.121094 -0.851562 C 1.210938 -0.597656 1.417969 -0.5 1.644531 -0.578125 L 10.953125 -3.855469 C 11.257812 -3.960938 11.304688 -4.148438 11.214844 -4.402344 L 10.324219 -6.933594 C 10.226562 -7.210938 10.082031 -7.300781 9.777344 -7.195312 L 3.453125 -4.96875 L 1.65625 -10.078125 L 6.488281 -11.78125 C 6.742188 -11.871094 6.839844 -12.074219 6.742188 -12.351562 L 5.859375 -14.855469 C 5.761719 -15.136719 5.554688 -15.234375 5.304688 -15.144531 L 0.472656 -13.445312 L -1.308594 -18.503906 L 5.015625 -20.730469 C 5.316406 -20.835938 5.355469 -21.050781 5.269531 -21.300781 Z M 4.378906 -23.832031 "/></g></g><g style="fill:rgb(30.589294%,44.709778%,62.348938%);fill-opacity:1;"><g transform="translate(164.190671, 93.247412)"><path style="stroke:none;" d="M 8.902344 -19.40625 C 8.472656 -21.890625 6.894531 -22.976562 4.4375 -22.550781 L 1.476562 -22.035156 C -1.007812 -21.601562 -2.125 -20.046875 -1.691406 -17.5625 L 0.660156 -4.035156 C 1.089844 -1.550781 2.667969 -0.464844 5.152344 -0.894531 L 8.113281 -1.410156 C 10.570312 -1.839844 11.6875 -3.394531 11.253906 -5.878906 L 10.757812 -8.730469 C 10.714844 -8.996094 10.527344 -9.125 10.261719 -9.082031 L 7.621094 -8.621094 C 7.328125 -8.570312 7.226562 -8.390625 7.269531 -8.125 L 7.640625 -6.011719 C 7.761719 -5.296875 7.453125 -4.890625 6.765625 -4.769531 L 5.390625 -4.53125 C 4.703125 -4.410156 4.273438 -4.691406 4.152344 -5.402344 L 2.054688 -17.453125 C 1.9375 -18.140625 2.214844 -18.570312 2.929688 -18.695312 L 4.304688 -18.933594 C 4.988281 -19.050781 5.425781 -18.746094 5.542969 -18.058594 L 5.910156 -15.945312 C 5.957031 -15.679688 6.117188 -15.546875 6.40625 -15.597656 L 9.050781 -16.054688 C 9.3125 -16.101562 9.445312 -16.289062 9.398438 -16.550781 Z M 8.902344 -19.40625 "/></g></g><g style="fill:rgb(30.589294%,44.709778%,62.348938%);fill-opacity:1;"><g transform="translate(180.519703, 90.706173)"><path style="stroke:none;" d="M 1.003906 -21.46875 C 0.738281 -21.464844 0.578125 -21.300781 0.582031 -21.035156 L 0.609375 -18.351562 C 0.613281 -18.085938 0.773438 -17.925781 1.042969 -17.929688 L 4.152344 -17.960938 L 4.339844 -0.476562 C 4.34375 -0.179688 4.503906 -0.046875 4.773438 -0.0507812 L 7.5625 -0.0820312 C 7.859375 -0.0820312 7.992188 -0.21875 7.988281 -0.515625 L 7.800781 -18 L 10.910156 -18.03125 C 11.207031 -18.035156 11.339844 -18.199219 11.335938 -18.46875 L 11.308594 -21.148438 C 11.304688 -21.417969 11.167969 -21.578125 10.875 -21.574219 Z M 1.003906 -21.46875 "/></g></g><g style="fill:rgb(30.589294%,44.709778%,62.348938%);fill-opacity:1;"><g transform="translate(195.900515, 90.69986)"><path style="stroke:none;" d="M 14.148438 -19.492188 C 13.832031 -19.539062 13.625 -19.4375 13.472656 -19.164062 L 9.308594 -12.027344 L 7.539062 -20.097656 C 7.480469 -20.40625 7.316406 -20.566406 6.996094 -20.617188 L 4.347656 -21.035156 C 3.949219 -21.097656 3.726562 -20.890625 3.828125 -20.492188 L 6.816406 -7.941406 L 5.515625 0.328125 C 5.460938 0.671875 5.617188 0.886719 5.960938 0.941406 L 8.503906 1.339844 C 8.847656 1.394531 9.0625 1.238281 9.117188 0.894531 L 10.421875 -7.371094 L 17.128906 -18.398438 C 17.34375 -18.742188 17.195312 -19.011719 16.800781 -19.074219 Z M 14.148438 -19.492188 "/></g></g><g style="fill:rgb(30.589294%,44.709778%,62.348938%);fill-opacity:1;"><g transform="translate(213.221295, 93.697503)"><path style="stroke:none;" d="M 17.136719 -16.769531 C 16.832031 -16.875 16.601562 -16.785156 16.421875 -16.507812 L 9.027344 -3.855469 L 11.074219 -18.359375 C 11.101562 -18.691406 10.976562 -18.902344 10.675781 -19.007812 L 8.265625 -19.84375 C 7.886719 -19.976562 7.664062 -19.824219 7.617188 -19.445312 L 5.199219 1.292969 C 5.171875 1.621094 5.296875 1.835938 5.601562 1.941406 L 8.132812 2.820312 C 8.4375 2.925781 8.667969 2.832031 8.851562 2.554688 L 19.804688 -15.21875 C 20.003906 -15.546875 19.921875 -15.804688 19.542969 -15.9375 Z M 17.136719 -16.769531 "/></g></g><g style="fill:rgb(30.589294%,44.709778%,62.348938%);fill-opacity:1;"><g transform="translate(229.702405, 99.734096)"><path style="stroke:none;" d="M 20.710938 -12.578125 C 20.839844 -12.8125 20.824219 -13.003906 20.542969 -13.160156 L 11.90625 -17.933594 C 11.695312 -18.050781 11.476562 -17.988281 11.347656 -17.753906 L 1.382812 0.273438 C 1.25 0.507812 1.3125 0.726562 1.527344 0.84375 L 10.164062 5.617188 C 10.445312 5.773438 10.617188 5.683594 10.746094 5.449219 L 12.042969 3.101562 C 12.1875 2.84375 12.15625 2.675781 11.875 2.519531 L 6.007812 -0.722656 L 8.628906 -5.464844 L 13.113281 -2.988281 C 13.347656 -2.855469 13.566406 -2.921875 13.707031 -3.179688 L 14.992188 -5.503906 C 15.136719 -5.761719 15.074219 -5.980469 14.839844 -6.109375 L 10.355469 -8.585938 L 12.949219 -13.28125 L 18.816406 -10.039062 C 19.101562 -9.882812 19.285156 -9.996094 19.414062 -10.230469 Z M 20.710938 -12.578125 "/></g></g><g style="fill:rgb(30.589294%,44.709778%,62.348938%);fill-opacity:1;"><g transform="translate(243.951587, 107.883964)"><path style="stroke:none;" d="M 20.632812 -6.0625 C 22.203125 -8.03125 21.988281 -9.917969 20.015625 -11.488281 L 14.75 -15.679688 C 14.539062 -15.847656 14.316406 -15.824219 14.148438 -15.613281 L 1.316406 0.5 C 1.148438 0.710938 1.175781 0.9375 1.382812 1.101562 L 3.566406 2.839844 C 3.777344 3.007812 4.003906 2.980469 4.167969 2.773438 L 8.378906 -2.515625 L 9.828125 -1.363281 L 6.988281 5.085938 C 6.882812 5.308594 6.902344 5.496094 7.113281 5.664062 L 9.292969 7.402344 C 9.523438 7.585938 9.75 7.558594 9.890625 7.257812 L 12.820312 0.609375 C 14.175781 0.96875 15.4375 0.464844 16.554688 -0.941406 Z M 10.585938 -5.285156 L 15.0625 -10.90625 L 17.140625 -9.253906 C 17.683594 -8.820312 17.746094 -8.292969 17.3125 -7.746094 L 14.167969 -3.800781 C 13.734375 -3.257812 13.207031 -3.195312 12.664062 -3.628906 Z M 10.585938 -5.285156 "/></g></g><g style="fill:rgb(30.589294%,44.709778%,62.348938%);fill-opacity:1;"><g transform="translate(256.873199, 118.519109)"><path style="stroke:none;" d="M 19.453125 -10.445312 C 17.785156 -12.300781 15.875 -12.425781 13.996094 -10.742188 L 9.285156 -6.519531 C 8.90625 -6.179688 8.824219 -5.785156 9.027344 -5.316406 L 11.710938 0.8125 L 9.054688 3.191406 C 8.515625 3.675781 8.007812 3.628906 7.539062 3.109375 L 6.679688 2.152344 C 6.234375 1.652344 6.226562 1.121094 6.765625 0.636719 L 8.300781 -0.742188 C 8.523438 -0.9375 8.53125 -1.128906 8.335938 -1.347656 L 6.472656 -3.425781 C 6.296875 -3.625 6.089844 -3.65625 5.867188 -3.457031 L 3.769531 -1.578125 C 1.894531 0.105469 1.808594 2.015625 3.472656 3.875 L 5.476562 6.113281 C 7.160156 7.988281 9.054688 8.09375 10.929688 6.410156 L 15.542969 2.277344 C 15.925781 1.9375 15.984375 1.558594 15.816406 1.09375 L 13.117188 -5.054688 L 15.871094 -7.523438 C 16.390625 -7.992188 16.941406 -7.941406 17.386719 -7.441406 L 18.246094 -6.484375 C 18.730469 -5.945312 18.683594 -5.433594 18.164062 -4.96875 L 16.605469 -3.574219 C 16.40625 -3.394531 16.394531 -3.167969 16.574219 -2.964844 L 18.433594 -0.890625 C 18.632812 -0.667969 18.839844 -0.675781 19.039062 -0.855469 L 21.15625 -2.753906 C 23.035156 -4.4375 23.136719 -6.328125 21.457031 -8.207031 Z M 19.453125 -10.445312 "/></g></g><g style="fill:rgb(30.589294%,44.709778%,62.348938%);fill-opacity:1;"><g transform="translate(267.664261, 130.940768)"><path style="stroke:none;" d="M 24.207031 -1.074219 C 24.433594 -1.21875 24.511719 -1.394531 24.339844 -1.667969 L 19.058594 -10.007812 C 18.929688 -10.210938 18.707031 -10.257812 18.480469 -10.117188 L 1.078125 0.902344 C 0.851562 1.046875 0.804688 1.269531 0.933594 1.472656 L 6.214844 9.8125 C 6.386719 10.082031 6.578125 10.085938 6.804688 9.945312 L 9.070312 8.507812 C 9.320312 8.351562 9.375 8.1875 9.203125 7.917969 L 5.617188 2.253906 L 10.195312 -0.644531 L 12.933594 3.683594 C 13.078125 3.910156 13.300781 3.957031 13.550781 3.800781 L 15.792969 2.378906 C 16.042969 2.222656 16.089844 2 15.949219 1.773438 L 13.207031 -2.554688 L 17.738281 -5.421875 L 21.328125 0.242188 C 21.5 0.511719 21.714844 0.503906 21.941406 0.359375 Z M 24.207031 -1.074219 "/></g></g><path style=" stroke:none;fill-rule:nonzero;fill:rgb(30.589294%,44.709778%,62.348938%);fill-opacity:1;" d="M 186.441406 166.355469 C 185.570312 166.355469 184.699219 166.398438 183.832031 166.484375 C 182.964844 166.570312 182.101562 166.699219 181.246094 166.867188 C 180.390625 167.039062 179.546875 167.25 178.710938 167.503906 C 177.878906 167.757812 177.058594 168.050781 176.25 168.382812 C 175.445312 168.71875 174.660156 169.089844 173.890625 169.5 C 173.121094 169.910156 172.375 170.359375 171.648438 170.84375 C 170.921875 171.328125 170.222656 171.847656 169.550781 172.402344 C 168.875 172.953125 168.230469 173.539062 167.613281 174.15625 C 166.996094 174.773438 166.414062 175.417969 165.859375 176.089844 C 165.304688 176.765625 164.789062 177.464844 164.300781 178.191406 C 163.816406 178.914062 163.371094 179.664062 162.960938 180.429688 C 162.546875 181.199219 162.175781 181.988281 161.84375 182.792969 C 161.507812 183.597656 161.214844 184.417969 160.960938 185.253906 C 160.707031 186.085938 160.496094 186.933594 160.328125 187.789062 C 160.15625 188.644531 160.027344 189.503906 159.945312 190.371094 C 159.859375 191.238281 159.816406 192.109375 159.816406 192.980469 C 159.816406 193.855469 159.859375 194.722656 159.945312 195.59375 C 160.027344 196.460938 160.15625 197.320312 160.328125 198.175781 C 160.496094 199.03125 160.707031 199.875 160.960938 200.710938 C 161.214844 201.546875 161.507812 202.367188 161.84375 203.171875 C 162.175781 203.976562 162.546875 204.765625 162.960938 205.53125 C 163.371094 206.300781 163.816406 207.050781 164.300781 207.773438 C 164.789062 208.5 165.304688 209.199219 165.859375 209.871094 C 166.414062 210.546875 166.996094 211.191406 167.613281 211.808594 C 168.230469 212.425781 168.875 213.011719 169.550781 213.5625 C 170.222656 214.117188 170.921875 214.636719 171.648438 215.121094 C 172.375 215.605469 173.121094 216.050781 173.890625 216.464844 C 174.660156 216.875 175.445312 217.246094 176.25 217.582031 C 177.058594 217.914062 177.878906 218.207031 178.710938 218.460938 C 179.546875 218.714844 180.390625 218.925781 181.246094 219.09375 C 182.101562 219.265625 182.964844 219.394531 183.832031 219.480469 C 184.699219 219.5625 185.570312 219.605469 186.441406 219.605469 C 187.3125 219.605469 188.183594 219.5625 189.050781 219.480469 C 189.917969 219.394531 190.78125 219.265625 191.636719 219.09375 C 192.488281 218.925781 193.335938 218.714844 194.167969 218.460938 C 195.003906 218.207031 195.824219 217.914062 196.628906 217.582031 C 197.433594 217.246094 198.222656 216.875 198.992188 216.464844 C 199.761719 216.050781 200.507812 215.605469 201.234375 215.121094 C 201.957031 214.636719 202.65625 214.117188 203.332031 213.5625 C 204.003906 213.011719 204.652344 212.425781 205.265625 211.808594 C 205.882812 211.191406 206.46875 210.546875 207.023438 209.871094 C 207.574219 209.199219 208.09375 208.5 208.578125 207.773438 C 209.0625 207.050781 209.511719 206.300781 209.921875 205.53125 C 210.332031 204.765625 210.707031 203.976562 211.039062 203.171875 C 211.371094 202.367188 211.664062 201.546875 211.917969 200.710938 C 212.171875 199.875 212.382812 199.03125 212.554688 198.175781 C 212.722656 197.320312 212.851562 196.460938 212.9375 195.59375 C 213.023438 194.722656 213.066406 193.855469 213.066406 192.980469 C 213.066406 192.109375 213.023438 191.238281 212.9375 190.371094 C 212.851562 189.503906 212.722656 188.644531 212.554688 187.789062 C 212.382812 186.933594 212.171875 186.085938 211.917969 185.253906 C 211.664062 184.417969 211.371094 183.597656 211.039062 182.792969 C 210.707031 181.988281 210.332031 181.199219 209.921875 180.429688 C 209.511719 179.664062 209.0625 178.914062 208.578125 178.191406 C 208.09375 177.464844 207.574219 176.765625 207.023438 176.089844 C 206.46875 175.417969 205.882812 174.773438 205.265625 174.15625 C 204.652344 173.539062 204.003906 172.953125 203.332031 172.402344 C 202.65625 171.847656 201.957031 171.328125 201.234375 170.84375 C 200.507812 170.359375 199.761719 169.910156 198.992188 169.5 C 198.222656 169.089844 197.433594 168.71875 196.628906 168.382812 C 195.824219 168.050781 195.003906 167.757812 194.167969 167.503906 C 193.335938 167.25 192.488281 167.039062 191.636719 166.867188 C 190.78125 166.699219 189.917969 166.570312 189.050781 166.484375 C 188.183594 166.398438 187.3125 166.355469 186.441406 166.355469 Z M 186.441406 166.355469 "/><path style=" stroke:none;fill-rule:nonzero;fill:rgb(92.158508%,58.039856%,50.588989%);fill-opacity:1;" d="M 177.0625 168.964844 C 167.140625 172.78125 160.503906 182.40625 160.503906 193.050781 C 160.503906 195.15625 160.757812 197.246094 161.257812 199.265625 L 163.027344 198.503906 C 164.128906 198.027344 165.226562 197.550781 166.324219 197.074219 C 167.707031 196.480469 168.902344 195.898438 169.488281 194.835938 C 170 193.910156 169.953125 192.796875 169.902344 191.621094 C 169.878906 191.03125 169.851562 190.421875 169.898438 189.820312 C 170.121094 186.890625 171.992188 184.585938 173.800781 182.351562 C 174.707031 181.234375 175.644531 180.078125 176.351562 178.867188 C 177.976562 176.082031 178.398438 172.765625 177.484375 169.992188 C 177.367188 169.640625 177.226562 169.296875 177.0625 168.964844 Z M 159.5 193.050781 C 159.5 181.835938 166.585938 171.71875 177.132812 167.867188 C 177.363281 167.785156 177.625 167.882812 177.746094 168.097656 C 178.023438 168.601562 178.253906 169.128906 178.433594 169.675781 C 179.445312 172.71875 178.988281 176.34375 177.21875 179.371094 C 176.472656 180.648438 175.511719 181.835938 174.582031 182.984375 C 172.789062 185.191406 171.097656 187.28125 170.898438 189.898438 C 170.859375 190.4375 170.882812 190.992188 170.90625 191.578125 C 170.960938 192.839844 171.015625 194.152344 170.367188 195.320312 C 169.566406 196.769531 167.925781 197.480469 166.726562 197.996094 C 165.625 198.472656 164.527344 198.949219 163.425781 199.421875 L 161.121094 200.417969 C 160.988281 200.476562 160.835938 200.472656 160.703125 200.410156 C 160.574219 200.347656 160.472656 200.230469 160.4375 200.089844 C 159.816406 197.808594 159.5 195.441406 159.5 193.050781 "/><path style=" stroke:none;fill-rule:nonzero;fill:rgb(92.158508%,58.039856%,50.588989%);fill-opacity:1;" d="M 200.789062 171.628906 C 200.179688 172.421875 199.296875 172.925781 198.503906 173.378906 L 187.15625 179.800781 C 185.761719 180.589844 184.164062 181.683594 184.164062 183.164062 C 184.164062 183.167969 184.164062 183.171875 184.164062 183.175781 C 184.175781 184.539062 185.53125 185.585938 186.855469 186.425781 C 193.671875 190.746094 201.394531 195.640625 202.921875 203.742188 C 203.300781 205.742188 203.242188 207.789062 203.183594 209.769531 C 203.15625 210.726562 203.125 211.710938 203.148438 212.683594 C 208.925781 207.773438 212.21875 200.671875 212.21875 193.050781 C 212.21875 184.414062 207.957031 176.441406 200.789062 171.628906 Z M 183.160156 183.164062 C 183.160156 181.167969 185.03125 179.855469 186.664062 178.929688 L 198.007812 172.507812 C 198.789062 172.0625 199.675781 171.554688 200.148438 170.796875 C 200.160156 170.78125 200.167969 170.769531 200.175781 170.753906 C 200.226562 170.609375 200.339844 170.503906 200.484375 170.453125 C 200.632812 170.40625 200.789062 170.429688 200.917969 170.511719 C 208.625 175.476562 213.222656 183.90625 213.222656 193.050781 C 213.222656 201.316406 209.496094 208.988281 203 214.101562 C 202.855469 214.21875 202.65625 214.242188 202.484375 214.167969 C 202.316406 214.089844 202.199219 213.929688 202.1875 213.742188 C 202.101562 212.40625 202.140625 211.050781 202.179688 209.738281 C 202.234375 207.8125 202.292969 205.824219 201.9375 203.929688 C 200.488281 196.253906 192.957031 191.480469 186.316406 187.269531 C 184.761719 186.285156 183.171875 185.03125 183.160156 183.183594 C 183.160156 183.175781 183.160156 183.167969 183.160156 183.164062 "/><path style=" stroke:none;fill-rule:nonzero;fill:rgb(92.158508%,58.039856%,50.588989%);fill-opacity:1;" d="M 182.515625 215.097656 C 182.515625 214.152344 182.289062 213.355469 181.613281 212.871094 C 180.773438 212.265625 179.53125 212.449219 178.425781 212.707031 C 176.34375 213.191406 174.28125 213.863281 172.292969 214.707031 C 175.222656 216.605469 178.554688 217.902344 181.996094 218.488281 C 182.039062 218.265625 182.082031 218.058594 182.121094 217.871094 C 182.332031 216.910156 182.515625 215.945312 182.515625 215.097656 Z M 170.75 214.613281 C 170.75 214.597656 170.75 214.582031 170.753906 214.566406 C 170.769531 214.386719 170.882812 214.230469 171.046875 214.15625 C 173.351562 213.117188 175.757812 212.300781 178.195312 211.730469 C 179.523438 211.421875 181.035156 211.214844 182.203125 212.058594 C 184.125 213.4375 183.507812 216.234375 183.101562 218.082031 C 183.039062 218.390625 182.960938 218.757812 182.910156 219.132812 C 182.890625 219.261719 182.820312 219.382812 182.710938 219.460938 C 182.605469 219.542969 182.472656 219.578125 182.335938 219.558594 C 178.269531 218.949219 174.335938 217.382812 170.964844 215.023438 C 170.832031 214.929688 170.75 214.777344 170.75 214.613281 "/><path style=" stroke:none;fill-rule:nonzero;fill:rgb(92.158508%,58.039856%,50.588989%);fill-opacity:1;" d="M 170.9375 192.640625 C 170.9375 193.558594 170.835938 194.476562 170.367188 195.320312 C 169.566406 196.773438 167.925781 197.480469 166.722656 197.996094 C 165.625 198.472656 164.527344 198.949219 163.425781 199.421875 L 161.523438 200.246094 C 162.363281 203.15625 163.703125 205.871094 165.511719 208.328125 C 166.03125 208.242188 166.546875 208.109375 167.054688 207.925781 C 169.195312 207.140625 171.242188 205.507812 173.136719 203.0625 C 173.332031 202.8125 173.523438 202.554688 173.714844 202.296875 C 174.460938 201.300781 175.226562 200.273438 176.230469 199.46875 C 178.566406 197.605469 181.585938 197.390625 183.710938 197.539062 C 185.699219 197.679688 188.546875 198.238281 190.828125 200.128906 C 192.996094 201.925781 194.125 204.589844 193.773438 207.078125 C 193.609375 208.238281 193.140625 209.328125 192.683594 210.382812 C 192.0625 211.832031 191.472656 213.199219 191.703125 214.617188 C 191.910156 215.90625 192.75 216.917969 193.667969 217.8125 C 196.761719 216.90625 199.621094 215.453125 202.171875 213.476562 C 202.105469 212.226562 202.140625 210.964844 202.179688 209.738281 C 202.234375 207.8125 202.292969 205.824219 201.9375 203.929688 C 200.488281 196.253906 192.957031 191.480469 186.316406 187.269531 C 184.761719 186.285156 183.171875 185.03125 183.160156 183.183594 C 183.160156 183.175781 183.160156 183.167969 183.160156 183.164062 C 183.160156 181.167969 185.03125 179.855469 186.664062 178.929688 L 198.007812 172.507812 C 198.6875 172.121094 199.445312 171.6875 199.941406 171.085938 C 195.867188 168.574219 191.183594 167.25 186.363281 167.25 C 183.5 167.25 180.691406 167.710938 178.011719 168.621094 C 178.175781 168.964844 178.316406 169.316406 178.433594 169.675781 C 179.445312 172.71875 178.988281 176.34375 177.21875 179.371094 C 176.472656 180.648438 175.511719 181.835938 174.582031 182.984375 C 172.789062 185.191406 171.097656 187.28125 170.898438 189.898438 C 170.859375 190.4375 170.882812 190.992188 170.90625 191.578125 C 170.921875 191.929688 170.9375 192.285156 170.9375 192.640625 Z M 160.417969 199.960938 C 160.417969 199.765625 160.535156 199.582031 160.722656 199.5 L 163.027344 198.503906 C 164.128906 198.027344 165.226562 197.550781 166.324219 197.074219 C 167.707031 196.480469 168.902344 195.898438 169.488281 194.835938 C 170 193.910156 169.953125 192.796875 169.902344 191.621094 C 169.878906 191.03125 169.851562 190.421875 169.898438 189.820312 C 170.121094 186.890625 171.992188 184.585938 173.800781 182.351562 C 174.707031 181.234375 175.644531 180.078125 176.351562 178.867188 C 177.976562 176.082031 178.398438 172.765625 177.484375 169.992188 C 177.320312 169.503906 177.109375 169.03125 176.863281 168.582031 C 176.792969 168.453125 176.78125 168.300781 176.832031 168.164062 C 176.882812 168.027344 176.996094 167.917969 177.132812 167.867188 C 180.085938 166.792969 183.191406 166.25 186.363281 166.25 C 191.546875 166.25 196.578125 167.722656 200.917969 170.511719 C 201.113281 170.636719 201.195312 170.886719 201.117188 171.105469 C 201.085938 171.195312 201.039062 171.265625 201 171.332031 C 200.394531 172.300781 199.390625 172.875 198.503906 173.378906 L 187.15625 179.800781 C 185.761719 180.589844 184.164062 181.683594 184.164062 183.164062 C 184.164062 183.167969 184.164062 183.171875 184.164062 183.175781 C 184.175781 184.539062 185.53125 185.585938 186.855469 186.425781 C 193.671875 190.746094 201.394531 195.640625 202.921875 203.742188 C 203.300781 205.742188 203.242188 207.789062 203.183594 209.769531 C 203.144531 211.054688 203.105469 212.386719 203.191406 213.675781 C 203.203125 213.839844 203.128906 214 203 214.101562 C 200.214844 216.300781 197.074219 217.898438 193.664062 218.859375 C 193.492188 218.90625 193.308594 218.859375 193.179688 218.738281 C 192.058594 217.675781 190.980469 216.457031 190.710938 214.777344 C 190.433594 213.070312 191.109375 211.503906 191.761719 209.988281 C 192.191406 208.992188 192.632812 207.964844 192.777344 206.9375 C 193.078125 204.824219 192.058594 202.453125 190.1875 200.898438 C 188.109375 199.179688 185.480469 198.667969 183.640625 198.539062 C 181.695312 198.402344 178.941406 198.589844 176.859375 200.25 C 175.957031 200.972656 175.261719 201.90625 174.523438 202.894531 C 174.328125 203.15625 174.132812 203.417969 173.929688 203.675781 C 171.917969 206.269531 169.722656 208.019531 167.398438 208.867188 C 166.726562 209.113281 166.035156 209.277344 165.347656 209.359375 C 165.167969 209.382812 164.992188 209.304688 164.882812 209.164062 C 162.820312 206.429688 161.324219 203.375 160.4375 200.089844 C 160.425781 200.046875 160.417969 200.003906 160.417969 199.960938 "/><path style=" stroke:none;fill-rule:nonzero;fill:rgb(92.158508%,58.039856%,50.588989%);fill-opacity:1;" d="M 192.828125 206.195312 C 192.828125 204.285156 191.84375 202.273438 190.1875 200.898438 C 188.109375 199.179688 185.480469 198.667969 183.640625 198.539062 C 181.695312 198.402344 178.941406 198.589844 176.859375 200.25 C 175.957031 200.972656 175.261719 201.90625 174.523438 202.894531 C 174.328125 203.15625 174.132812 203.417969 173.929688 203.675781 C 171.917969 206.269531 169.722656 208.019531 167.398438 208.867188 C 167.003906 209.011719 166.601562 209.128906 166.199219 209.214844 C 167.679688 211.054688 169.398438 212.671875 171.308594 214.039062 C 173.535156 213.054688 175.851562 212.277344 178.195312 211.730469 C 179.523438 211.421875 181.035156 211.214844 182.203125 212.058594 C 184.125 213.4375 183.507812 216.234375 183.101562 218.085938 C 183.066406 218.253906 183.027344 218.441406 182.992188 218.636719 C 184.097656 218.78125 185.230469 218.855469 186.363281 218.855469 C 188.457031 218.855469 190.535156 218.605469 192.550781 218.113281 C 191.675781 217.195312 190.929688 216.136719 190.710938 214.777344 C 190.433594 213.070312 191.109375 211.503906 191.761719 209.988281 C 192.191406 208.992188 192.632812 207.964844 192.777344 206.9375 C 192.8125 206.691406 192.828125 206.445312 192.828125 206.195312 Z M 164.785156 208.863281 C 164.785156 208.796875 164.796875 208.730469 164.824219 208.664062 C 164.894531 208.5 165.046875 208.386719 165.226562 208.367188 C 165.839844 208.289062 166.457031 208.144531 167.054688 207.925781 C 169.195312 207.140625 171.242188 205.507812 173.136719 203.0625 C 173.332031 202.8125 173.523438 202.554688 173.714844 202.296875 C 174.460938 201.300781 175.226562 200.273438 176.230469 199.46875 C 178.566406 197.605469 181.585938 197.390625 183.710938 197.539062 C 185.699219 197.679688 188.546875 198.238281 190.828125 200.128906 C 192.996094 201.925781 194.125 204.589844 193.773438 207.078125 C 193.609375 208.238281 193.140625 209.328125 192.683594 210.382812 C 192.0625 211.832031 191.472656 213.199219 191.703125 214.617188 C 191.925781 216.003906 192.878906 217.070312 193.875 218.011719 C 194.003906 218.136719 194.058594 218.320312 194.015625 218.496094 C 193.972656 218.671875 193.835938 218.808594 193.664062 218.859375 C 191.296875 219.523438 188.839844 219.855469 186.363281 219.855469 C 185.007812 219.855469 183.65625 219.757812 182.335938 219.558594 C 182.0625 219.515625 181.878906 219.257812 181.914062 218.992188 C 181.972656 218.585938 182.050781 218.199219 182.121094 217.871094 C 182.566406 215.84375 182.894531 213.789062 181.613281 212.871094 C 180.773438 212.265625 179.53125 212.449219 178.425781 212.707031 C 176.050781 213.261719 173.707031 214.054688 171.460938 215.070312 C 171.296875 215.144531 171.109375 215.125 170.964844 215.023438 C 168.644531 213.40625 166.601562 211.4375 164.882812 209.164062 C 164.816406 209.078125 164.785156 208.96875 164.785156 208.863281 "/><path style=" stroke:none;fill-rule:nonzero;fill:rgb(92.158508%,58.039856%,50.588989%);fill-opacity:1;" d="M 244.230469 132.375 C 244.230469 128.203125 240.828125 124.804688 236.644531 124.804688 C 234.300781 124.804688 232.121094 125.863281 230.675781 127.707031 C 229.617188 129.050781 229.058594 130.664062 229.058594 132.375 C 229.058594 136.546875 232.460938 139.941406 236.644531 139.941406 C 238.835938 139.941406 240.917969 138.996094 242.355469 137.351562 C 242.355469 137.351562 242.359375 137.351562 242.359375 137.351562 C 243.566406 135.972656 244.230469 134.207031 244.230469 132.375 Z M 228.054688 132.375 C 228.054688 130.4375 228.6875 128.609375 229.882812 127.089844 C 231.523438 125 233.988281 123.804688 236.644531 123.804688 C 241.378906 123.804688 245.234375 127.648438 245.234375 132.375 C 245.234375 134.449219 244.480469 136.453125 243.113281 138.007812 C 241.484375 139.875 239.125 140.941406 236.644531 140.941406 C 231.90625 140.941406 228.054688 137.101562 228.054688 132.375 "/><g clip-rule="nonzero" clip-path="url(#clip3)"><path style=" stroke:none;fill-rule:nonzero;fill:rgb(92.158508%,58.039856%,50.588989%);fill-opacity:1;" d="M 115.871094 193.050781 C 115.871094 197.449219 112.558594 201.09375 108.242188 201.570312 C 110.296875 220.601562 119.253906 238.175781 133.507812 251.101562 C 147.984375 264.234375 166.753906 271.464844 186.363281 271.464844 C 207.371094 271.464844 227.105469 263.316406 241.941406 248.511719 C 256.773438 233.710938 264.941406 214.015625 264.941406 193.050781 C 264.941406 172.496094 257.0625 153.113281 242.746094 138.40625 C 241.136719 140.023438 238.945312 140.941406 236.644531 140.941406 C 231.90625 140.941406 228.054688 137.101562 228.054688 132.375 C 228.054688 130.621094 228.574219 128.953125 229.5625 127.523438 C 216.742188 119.09375 201.8125 114.640625 186.363281 114.640625 C 166.753906 114.640625 147.984375 121.871094 133.507812 135.003906 C 119.253906 147.929688 110.296875 165.503906 108.242188 184.535156 C 112.558594 185.011719 115.871094 188.65625 115.871094 193.050781 Z M 107.183594 201.109375 C 107.183594 200.992188 107.226562 200.875 107.304688 200.785156 C 107.394531 200.679688 107.523438 200.617188 107.660156 200.609375 C 111.699219 200.410156 114.863281 197.089844 114.863281 193.050781 C 114.863281 189.015625 111.699219 185.695312 107.660156 185.496094 C 107.523438 185.488281 107.394531 185.425781 107.304688 185.320312 C 107.214844 185.214844 107.175781 185.082031 107.1875 184.945312 C 109.160156 165.46875 118.269531 147.46875 132.832031 134.261719 C 147.496094 120.960938 166.503906 113.636719 186.363281 113.636719 C 202.191406 113.636719 217.472656 118.25 230.558594 126.980469 C 230.675781 127.058594 230.753906 127.179688 230.773438 127.320312 C 230.796875 127.457031 230.761719 127.597656 230.675781 127.707031 C 229.617188 129.050781 229.058594 130.664062 229.058594 132.375 C 229.058594 136.546875 232.460938 139.941406 236.644531 139.941406 C 238.835938 139.941406 240.917969 138.996094 242.355469 137.351562 C 242.449219 137.246094 242.582031 137.183594 242.71875 137.179688 C 242.859375 137.175781 242.996094 137.230469 243.09375 137.328125 C 257.832031 152.269531 265.949219 172.058594 265.949219 193.050781 C 265.949219 214.28125 257.671875 234.230469 242.652344 249.222656 C 227.628906 264.210938 207.636719 272.46875 186.363281 272.46875 C 166.503906 272.46875 147.496094 265.144531 132.832031 251.84375 C 118.269531 238.636719 109.160156 220.636719 107.1875 201.160156 C 107.1875 201.144531 107.183594 201.128906 107.183594 201.109375 "/></g><g clip-rule="nonzero" clip-path="url(#clip4)"><path style=" stroke:none;fill-rule:nonzero;fill:rgb(92.158508%,58.039856%,50.588989%);fill-opacity:1;" d="M 114.863281 193.050781 C 114.863281 189.015625 111.699219 185.695312 107.660156 185.496094 C 107.53125 185.488281 107.40625 185.484375 107.28125 185.484375 C 103.097656 185.484375 99.695312 188.878906 99.695312 193.050781 C 99.695312 197.226562 103.097656 200.621094 107.28125 200.621094 C 107.40625 200.621094 107.53125 200.617188 107.65625 200.609375 C 107.660156 200.609375 107.660156 200.609375 107.660156 200.609375 C 111.699219 200.410156 114.863281 197.089844 114.863281 193.050781 Z M 98.6875 193.050781 C 98.6875 188.324219 102.542969 184.480469 107.28125 184.480469 C 107.425781 184.480469 107.570312 184.484375 107.71875 184.496094 C 112.285156 184.71875 115.871094 188.476562 115.871094 193.050781 C 115.871094 197.625 112.289062 201.386719 107.714844 201.609375 C 107.570312 201.621094 107.425781 201.625 107.28125 201.625 C 102.542969 201.625 98.6875 197.78125 98.6875 193.050781 "/></g><path style=" stroke:none;fill-rule:nonzero;fill:rgb(92.158508%,58.039856%,50.588989%);fill-opacity:1;" d="M 203.808594 244.457031 C 203.808594 243.867188 203.742188 243.289062 203.609375 242.734375 C 202.808594 239.289062 199.773438 236.886719 196.222656 236.886719 C 192.039062 236.886719 188.636719 240.28125 188.636719 244.457031 C 188.636719 244.832031 188.664062 245.203125 188.714844 245.558594 C 189.257812 249.246094 192.484375 252.023438 196.222656 252.023438 C 200.40625 252.023438 203.808594 248.628906 203.808594 244.457031 Z M 188.21875 245.632812 L 188.21875 245.636719 Z M 187.632812 244.457031 C 187.632812 239.730469 191.488281 235.886719 196.222656 235.886719 C 200.242188 235.886719 203.679688 238.605469 204.589844 242.503906 C 204.738281 243.132812 204.8125 243.789062 204.8125 244.457031 C 204.8125 249.183594 200.960938 253.027344 196.222656 253.027344 C 191.988281 253.027344 188.335938 249.878906 187.722656 245.703125 C 187.664062 245.300781 187.632812 244.878906 187.632812 244.457031 "/><path style=" stroke:none;fill-rule:nonzero;fill:rgb(92.158508%,58.039856%,50.588989%);fill-opacity:1;" d="M 238.582031 193.050781 C 238.582031 179.125 233.152344 166.035156 223.296875 156.199219 C 213.4375 146.359375 200.320312 140.941406 186.363281 140.941406 C 172.402344 140.941406 159.285156 146.359375 149.429688 156.199219 C 139.570312 166.035156 134.140625 179.125 134.140625 193.050781 C 134.140625 206.980469 139.570312 220.070312 149.429688 229.90625 C 159.285156 239.746094 172.402344 245.164062 186.363281 245.164062 C 186.777344 245.164062 187.207031 245.15625 187.660156 245.144531 C 187.640625 244.917969 187.632812 244.6875 187.632812 244.457031 C 187.632812 239.730469 191.488281 235.886719 196.222656 235.886719 C 200.050781 235.886719 203.355469 238.355469 204.445312 241.960938 C 224.886719 234.441406 238.582031 214.855469 238.582031 193.050781 Z M 133.136719 193.050781 C 133.136719 178.855469 138.671875 165.515625 148.71875 155.488281 C 158.765625 145.460938 172.132812 139.941406 186.363281 139.941406 C 200.589844 139.941406 213.957031 145.460938 224.007812 155.488281 C 234.054688 165.515625 239.585938 178.855469 239.585938 193.050781 C 239.585938 215.464844 225.394531 235.570312 204.269531 243.089844 C 204.132812 243.140625 203.984375 243.128906 203.855469 243.058594 C 203.730469 242.992188 203.640625 242.871094 203.609375 242.730469 C 202.808594 239.289062 199.773438 236.886719 196.222656 236.886719 C 192.039062 236.886719 188.636719 240.28125 188.636719 244.457031 C 188.636719 244.832031 188.664062 245.203125 188.714844 245.558594 C 188.738281 245.699219 188.695312 245.84375 188.605469 245.953125 C 188.511719 246.0625 188.378906 246.128906 188.234375 246.132812 C 187.566406 246.15625 186.953125 246.164062 186.363281 246.164062 C 172.132812 246.164062 158.765625 240.644531 148.71875 230.617188 C 138.671875 220.589844 133.136719 207.25 133.136719 193.050781 "/><path style=" stroke:none;fill-rule:nonzero;fill:rgb(30.589294%,44.709778%,62.348938%);fill-opacity:1;" d="M 186.441406 165.605469 C 185.570312 165.605469 184.699219 165.648438 183.832031 165.734375 C 182.964844 165.820312 182.101562 165.949219 181.246094 166.117188 C 180.390625 166.289062 179.546875 166.5 178.710938 166.753906 C 177.878906 167.007812 177.058594 167.300781 176.25 167.632812 C 175.445312 167.96875 174.660156 168.339844 173.890625 168.75 C 173.121094 169.160156 172.375 169.609375 171.648438 170.09375 C 170.921875 170.578125 170.222656 171.097656 169.550781 171.652344 C 168.875 172.203125 168.230469 172.789062 167.613281 173.40625 C 166.996094 174.023438 166.414062 174.667969 165.859375 175.339844 C 165.304688 176.015625 164.789062 176.714844 164.300781 177.441406 C 163.816406 178.164062 163.371094 178.914062 162.960938 179.679688 C 162.546875 180.449219 162.175781 181.238281 161.84375 182.042969 C 161.507812 182.847656 161.214844 183.667969 160.960938 184.503906 C 160.707031 185.335938 160.496094 186.183594 160.328125 187.039062 C 160.15625 187.894531 160.027344 188.753906 159.945312 189.621094 C 159.859375 190.488281 159.816406 191.359375 159.816406 192.230469 C 159.816406 193.105469 159.859375 193.972656 159.945312 194.84375 C 160.027344 195.710938 160.15625 196.570312 160.328125 197.425781 C 160.496094 198.28125 160.707031 199.125 160.960938 199.960938 C 161.214844 200.796875 161.507812 201.617188 161.84375 202.421875 C 162.175781 203.226562 162.546875 204.015625 162.960938 204.78125 C 163.371094 205.550781 163.816406 206.300781 164.300781 207.023438 C 164.789062 207.75 165.304688 208.449219 165.859375 209.121094 C 166.414062 209.796875 166.996094 210.441406 167.613281 211.058594 C 168.230469 211.675781 168.875 212.261719 169.550781 212.8125 C 170.222656 213.367188 170.921875 213.886719 171.648438 214.371094 C 172.375 214.855469 173.121094 215.300781 173.890625 215.714844 C 174.660156 216.125 175.445312 216.496094 176.25 216.832031 C 177.058594 217.164062 177.878906 217.457031 178.710938 217.710938 C 179.546875 217.964844 180.390625 218.175781 181.246094 218.34375 C 182.101562 218.515625 182.964844 218.644531 183.832031 218.730469 C 184.699219 218.8125 185.570312 218.855469 186.441406 218.855469 C 187.3125 218.855469 188.183594 218.8125 189.050781 218.730469 C 189.917969 218.644531 190.78125 218.515625 191.636719 218.34375 C 192.488281 218.175781 193.335938 217.964844 194.167969 217.710938 C 195.003906 217.457031 195.824219 217.164062 196.628906 216.832031 C 197.433594 216.496094 198.222656 216.125 198.992188 215.714844 C 199.761719 215.300781 200.507812 214.855469 201.234375 214.371094 C 201.957031 213.886719 202.65625 213.367188 203.332031 212.8125 C 204.003906 212.261719 204.652344 211.675781 205.265625 211.058594 C 205.882812 210.441406 206.46875 209.796875 207.023438 209.121094 C 207.574219 208.449219 208.09375 207.75 208.578125 207.023438 C 209.0625 206.300781 209.511719 205.550781 209.921875 204.78125 C 210.332031 204.015625 210.707031 203.226562 211.039062 202.421875 C 211.371094 201.617188 211.664062 200.796875 211.917969 199.960938 C 212.171875 199.125 212.382812 198.28125 212.554688 197.425781 C 212.722656 196.570312 212.851562 195.710938 212.9375 194.84375 C 213.023438 193.972656 213.066406 193.105469 213.066406 192.230469 C 213.066406 191.359375 213.023438 190.488281 212.9375 189.621094 C 212.851562 188.753906 212.722656 187.894531 212.554688 187.039062 C 212.382812 186.183594 212.171875 185.335938 211.917969 184.503906 C 211.664062 183.667969 211.371094 182.847656 211.039062 182.042969 C 210.707031 181.238281 210.332031 180.449219 209.921875 179.679688 C 209.511719 178.914062 209.0625 178.164062 208.578125 177.441406 C 208.09375 176.714844 207.574219 176.015625 207.023438 175.339844 C 206.46875 174.667969 205.882812 174.023438 205.265625 173.40625 C 204.652344 172.789062 204.003906 172.203125 203.332031 171.652344 C 202.65625 171.097656 201.957031 170.578125 201.234375 170.09375 C 200.507812 169.609375 199.761719 169.160156 198.992188 168.75 C 198.222656 168.339844 197.433594 167.96875 196.628906 167.632812 C 195.824219 167.300781 195.003906 167.007812 194.167969 166.753906 C 193.335938 166.5 192.488281 166.289062 191.636719 166.117188 C 190.78125 165.949219 189.917969 165.820312 189.050781 165.734375 C 188.183594 165.648438 187.3125 165.605469 186.441406 165.605469 Z M 186.441406 165.605469 "/><path style=" stroke:none;fill-rule:nonzero;fill:rgb(92.158508%,58.039856%,50.588989%);fill-opacity:1;" d="M 177.0625 168.214844 C 167.140625 172.03125 160.503906 181.65625 160.503906 192.300781 C 160.503906 194.40625 160.757812 196.496094 161.257812 198.515625 L 163.027344 197.753906 C 164.128906 197.277344 165.226562 196.800781 166.324219 196.324219 C 167.707031 195.730469 168.902344 195.148438 169.488281 194.085938 C 170 193.160156 169.953125 192.046875 169.902344 190.871094 C 169.878906 190.28125 169.851562 189.671875 169.898438 189.070312 C 170.121094 186.140625 171.992188 183.835938 173.800781 181.601562 C 174.707031 180.484375 175.644531 179.328125 176.351562 178.117188 C 177.976562 175.332031 178.398438 172.015625 177.484375 169.242188 C 177.367188 168.890625 177.226562 168.546875 177.0625 168.214844 Z M 159.5 192.300781 C 159.5 181.085938 166.585938 170.96875 177.132812 167.117188 C 177.363281 167.035156 177.625 167.132812 177.746094 167.347656 C 178.023438 167.851562 178.253906 168.378906 178.433594 168.925781 C 179.445312 171.96875 178.988281 175.59375 177.21875 178.621094 C 176.472656 179.898438 175.511719 181.085938 174.582031 182.234375 C 172.789062 184.441406 171.097656 186.53125 170.898438 189.148438 C 170.859375 189.6875 170.882812 190.242188 170.90625 190.828125 C 170.960938 192.089844 171.015625 193.402344 170.367188 194.570312 C 169.566406 196.019531 167.925781 196.730469 166.726562 197.246094 C 165.625 197.722656 164.527344 198.199219 163.425781 198.671875 L 161.121094 199.667969 C 160.988281 199.726562 160.835938 199.722656 160.703125 199.660156 C 160.574219 199.597656 160.472656 199.480469 160.4375 199.339844 C 159.816406 197.058594 159.5 194.691406 159.5 192.300781 "/><path style=" stroke:none;fill-rule:nonzero;fill:rgb(92.158508%,58.039856%,50.588989%);fill-opacity:1;" d="M 200.789062 170.878906 C 200.179688 171.671875 199.296875 172.175781 198.503906 172.628906 L 187.15625 179.050781 C 185.761719 179.839844 184.164062 180.933594 184.164062 182.414062 C 184.164062 182.417969 184.164062 182.421875 184.164062 182.425781 C 184.175781 183.789062 185.53125 184.835938 186.855469 185.675781 C 193.671875 189.996094 201.394531 194.890625 202.921875 202.992188 C 203.300781 204.992188 203.242188 207.039062 203.183594 209.019531 C 203.15625 209.976562 203.125 210.960938 203.148438 211.933594 C 208.925781 207.023438 212.21875 199.921875 212.21875 192.300781 C 212.21875 183.664062 207.957031 175.691406 200.789062 170.878906 Z M 183.160156 182.414062 C 183.160156 180.417969 185.03125 179.105469 186.664062 178.179688 L 198.007812 171.757812 C 198.789062 171.3125 199.675781 170.804688 200.148438 170.046875 C 200.160156 170.03125 200.167969 170.019531 200.175781 170.003906 C 200.226562 169.859375 200.339844 169.753906 200.484375 169.703125 C 200.632812 169.65625 200.789062 169.679688 200.917969 169.761719 C 208.625 174.726562 213.222656 183.15625 213.222656 192.300781 C 213.222656 200.566406 209.496094 208.238281 203 213.351562 C 202.855469 213.46875 202.65625 213.492188 202.484375 213.417969 C 202.316406 213.339844 202.199219 213.179688 202.1875 212.992188 C 202.101562 211.65625 202.140625 210.300781 202.179688 208.988281 C 202.234375 207.0625 202.292969 205.074219 201.9375 203.179688 C 200.488281 195.503906 192.957031 190.730469 186.316406 186.519531 C 184.761719 185.535156 183.171875 184.28125 183.160156 182.433594 C 183.160156 182.425781 183.160156 182.417969 183.160156 182.414062 "/><path style=" stroke:none;fill-rule:nonzero;fill:rgb(92.158508%,58.039856%,50.588989%);fill-opacity:1;" d="M 182.515625 214.347656 C 182.515625 213.402344 182.289062 212.605469 181.613281 212.121094 C 180.773438 211.515625 179.53125 211.699219 178.425781 211.957031 C 176.339844 212.441406 174.28125 213.113281 172.292969 213.957031 C 175.222656 215.855469 178.554688 217.152344 181.996094 217.738281 C 182.039062 217.515625 182.082031 217.308594 182.121094 217.121094 C 182.332031 216.160156 182.515625 215.195312 182.515625 214.347656 Z M 170.75 213.863281 C 170.75 213.847656 170.75 213.832031 170.753906 213.816406 C 170.769531 213.636719 170.882812 213.480469 171.046875 213.40625 C 173.351562 212.367188 175.757812 211.550781 178.195312 210.980469 C 179.523438 210.671875 181.035156 210.464844 182.203125 211.308594 C 184.125 212.6875 183.507812 215.484375 183.101562 217.332031 C 183.039062 217.640625 182.960938 218.007812 182.910156 218.382812 C 182.890625 218.511719 182.820312 218.632812 182.710938 218.710938 C 182.605469 218.792969 182.472656 218.828125 182.335938 218.808594 C 178.269531 218.199219 174.335938 216.632812 170.964844 214.273438 C 170.832031 214.179688 170.75 214.027344 170.75 213.863281 "/><path style=" stroke:none;fill-rule:nonzero;fill:rgb(92.158508%,58.039856%,50.588989%);fill-opacity:1;" d="M 170.9375 191.890625 C 170.9375 192.808594 170.835938 193.726562 170.367188 194.570312 C 169.566406 196.023438 167.925781 196.730469 166.722656 197.246094 C 165.625 197.722656 164.527344 198.199219 163.425781 198.671875 L 161.523438 199.496094 C 162.363281 202.40625 163.703125 205.121094 165.511719 207.578125 C 166.03125 207.492188 166.546875 207.359375 167.054688 207.175781 C 169.195312 206.390625 171.242188 204.757812 173.136719 202.3125 C 173.332031 202.0625 173.523438 201.804688 173.714844 201.546875 C 174.460938 200.550781 175.226562 199.523438 176.230469 198.71875 C 178.566406 196.855469 181.585938 196.640625 183.710938 196.789062 C 185.699219 196.929688 188.546875 197.488281 190.828125 199.378906 C 192.996094 201.175781 194.125 203.839844 193.773438 206.328125 C 193.609375 207.488281 193.140625 208.578125 192.683594 209.632812 C 192.0625 211.082031 191.472656 212.449219 191.703125 213.867188 C 191.910156 215.15625 192.75 216.167969 193.667969 217.0625 C 196.761719 216.15625 199.621094 214.703125 202.171875 212.726562 C 202.105469 211.476562 202.140625 210.214844 202.179688 208.988281 C 202.234375 207.0625 202.292969 205.074219 201.9375 203.179688 C 200.488281 195.503906 192.957031 190.730469 186.316406 186.519531 C 184.761719 185.535156 183.171875 184.28125 183.160156 182.433594 C 183.160156 182.425781 183.160156 182.417969 183.160156 182.414062 C 183.160156 180.417969 185.03125 179.105469 186.664062 178.179688 L 198.007812 171.757812 C 198.6875 171.371094 199.445312 170.9375 199.941406 170.335938 C 195.867188 167.824219 191.183594 166.5 186.363281 166.5 C 183.5 166.5 180.691406 166.960938 178.011719 167.871094 C 178.175781 168.214844 178.316406 168.566406 178.433594 168.925781 C 179.445312 171.96875 178.988281 175.59375 177.21875 178.621094 C 176.472656 179.898438 175.511719 181.085938 174.582031 182.234375 C 172.789062 184.441406 171.097656 186.53125 170.898438 189.148438 C 170.859375 189.6875 170.882812 190.242188 170.90625 190.828125 C 170.921875 191.179688 170.9375 191.535156 170.9375 191.890625 Z M 160.417969 199.210938 C 160.417969 199.015625 160.535156 198.832031 160.722656 198.75 L 163.027344 197.753906 C 164.128906 197.277344 165.226562 196.800781 166.324219 196.324219 C 167.707031 195.730469 168.902344 195.148438 169.488281 194.085938 C 170 193.160156 169.953125 192.046875 169.902344 190.871094 C 169.878906 190.28125 169.851562 189.671875 169.898438 189.070312 C 170.121094 186.140625 171.992188 183.835938 173.800781 181.601562 C 174.707031 180.484375 175.644531 179.328125 176.351562 178.117188 C 177.976562 175.332031 178.398438 172.015625 177.484375 169.242188 C 177.320312 168.753906 177.109375 168.28125 176.863281 167.832031 C 176.792969 167.703125 176.78125 167.550781 176.832031 167.414062 C 176.882812 167.277344 176.996094 167.167969 177.132812 167.117188 C 180.085938 166.042969 183.191406 165.5 186.363281 165.5 C 191.546875 165.5 196.578125 166.972656 200.917969 169.761719 C 201.113281 169.886719 201.195312 170.136719 201.117188 170.355469 C 201.082031 170.445312 201.039062 170.515625 201 170.582031 C 200.394531 171.550781 199.390625 172.125 198.503906 172.628906 L 187.15625 179.050781 C 185.761719 179.839844 184.164062 180.933594 184.164062 182.414062 C 184.164062 182.417969 184.164062 182.421875 184.164062 182.425781 C 184.175781 183.789062 185.53125 184.835938 186.855469 185.675781 C 193.671875 189.996094 201.394531 194.890625 202.921875 202.992188 C 203.300781 204.992188 203.242188 207.039062 203.183594 209.019531 C 203.144531 210.304688 203.105469 211.636719 203.191406 212.925781 C 203.203125 213.089844 203.128906 213.25 203 213.351562 C 200.214844 215.550781 197.074219 217.148438 193.664062 218.109375 C 193.492188 218.15625 193.308594 218.109375 193.179688 217.988281 C 192.058594 216.925781 190.980469 215.707031 190.710938 214.027344 C 190.433594 212.320312 191.109375 210.753906 191.761719 209.238281 C 192.1875 208.242188 192.632812 207.214844 192.777344 206.1875 C 193.078125 204.074219 192.058594 201.703125 190.1875 200.148438 C 188.109375 198.429688 185.480469 197.917969 183.640625 197.789062 C 181.695312 197.652344 178.941406 197.839844 176.859375 199.5 C 175.957031 200.222656 175.261719 201.15625 174.523438 202.144531 C 174.328125 202.40625 174.132812 202.667969 173.929688 202.925781 C 171.917969 205.519531 169.722656 207.269531 167.398438 208.117188 C 166.726562 208.363281 166.035156 208.527344 165.347656 208.609375 C 165.167969 208.632812 164.992188 208.554688 164.882812 208.414062 C 162.820312 205.679688 161.324219 202.625 160.4375 199.339844 C 160.425781 199.296875 160.417969 199.253906 160.417969 199.210938 "/><path style=" stroke:none;fill-rule:nonzero;fill:rgb(92.158508%,58.039856%,50.588989%);fill-opacity:1;" d="M 192.828125 205.445312 C 192.828125 203.535156 191.84375 201.523438 190.1875 200.148438 C 188.109375 198.429688 185.480469 197.917969 183.640625 197.789062 C 181.695312 197.652344 178.941406 197.839844 176.859375 199.5 C 175.957031 200.222656 175.261719 201.15625 174.523438 202.144531 C 174.328125 202.40625 174.132812 202.667969 173.929688 202.925781 C 171.917969 205.519531 169.722656 207.269531 167.398438 208.117188 C 167.003906 208.261719 166.601562 208.378906 166.199219 208.464844 C 167.679688 210.304688 169.398438 211.921875 171.308594 213.289062 C 173.535156 212.304688 175.851562 211.527344 178.195312 210.980469 C 179.523438 210.671875 181.035156 210.464844 182.203125 211.308594 C 184.125 212.6875 183.507812 215.484375 183.101562 217.335938 C 183.066406 217.503906 183.027344 217.691406 182.992188 217.886719 C 184.097656 218.03125 185.230469 218.105469 186.363281 218.105469 C 188.457031 218.105469 190.535156 217.855469 192.550781 217.363281 C 191.675781 216.445312 190.929688 215.386719 190.710938 214.027344 C 190.433594 212.320312 191.109375 210.753906 191.761719 209.238281 C 192.1875 208.242188 192.632812 207.214844 192.777344 206.1875 C 192.8125 205.941406 192.828125 205.695312 192.828125 205.445312 Z M 164.785156 208.113281 C 164.785156 208.046875 164.796875 207.980469 164.824219 207.914062 C 164.894531 207.75 165.046875 207.636719 165.226562 207.617188 C 165.839844 207.539062 166.457031 207.394531 167.054688 207.175781 C 169.195312 206.390625 171.242188 204.757812 173.136719 202.3125 C 173.332031 202.0625 173.523438 201.804688 173.714844 201.546875 C 174.460938 200.550781 175.226562 199.523438 176.230469 198.71875 C 178.566406 196.855469 181.585938 196.640625 183.710938 196.789062 C 185.699219 196.929688 188.546875 197.488281 190.828125 199.378906 C 192.996094 201.175781 194.125 203.839844 193.773438 206.328125 C 193.609375 207.488281 193.140625 208.578125 192.683594 209.632812 C 192.0625 211.082031 191.472656 212.449219 191.703125 213.867188 C 191.925781 215.253906 192.878906 216.320312 193.875 217.261719 C 194.003906 217.386719 194.058594 217.570312 194.015625 217.746094 C 193.972656 217.921875 193.835938 218.058594 193.664062 218.109375 C 191.296875 218.773438 188.839844 219.105469 186.363281 219.105469 C 185.007812 219.105469 183.65625 219.007812 182.335938 218.808594 C 182.0625 218.765625 181.878906 218.507812 181.914062 218.242188 C 181.972656 217.835938 182.050781 217.449219 182.121094 217.121094 C 182.566406 215.09375 182.894531 213.039062 181.613281 212.121094 C 180.773438 211.515625 179.53125 211.699219 178.425781 211.957031 C 176.050781 212.511719 173.707031 213.304688 171.460938 214.320312 C 171.296875 214.394531 171.109375 214.375 170.964844 214.273438 C 168.644531 212.65625 166.601562 210.6875 164.882812 208.414062 C 164.816406 208.328125 164.785156 208.21875 164.785156 208.113281 "/><path style=" stroke:none;fill-rule:nonzero;fill:rgb(92.158508%,58.039856%,50.588989%);fill-opacity:1;" d="M 244.230469 131.625 C 244.230469 127.453125 240.828125 124.054688 236.644531 124.054688 C 234.300781 124.054688 232.121094 125.113281 230.675781 126.957031 C 229.617188 128.300781 229.058594 129.914062 229.058594 131.625 C 229.058594 135.796875 232.460938 139.191406 236.644531 139.191406 C 238.835938 139.191406 240.917969 138.246094 242.355469 136.601562 C 242.355469 136.601562 242.359375 136.601562 242.359375 136.601562 C 243.566406 135.222656 244.230469 133.457031 244.230469 131.625 Z M 228.054688 131.625 C 228.054688 129.6875 228.6875 127.859375 229.882812 126.339844 C 231.523438 124.25 233.988281 123.054688 236.644531 123.054688 C 241.378906 123.054688 245.234375 126.898438 245.234375 131.625 C 245.234375 133.699219 244.480469 135.703125 243.113281 137.257812 C 241.484375 139.125 239.125 140.191406 236.644531 140.191406 C 231.90625 140.191406 228.054688 136.351562 228.054688 131.625 "/><g clip-rule="nonzero" clip-path="url(#clip5)"><path style=" stroke:none;fill-rule:nonzero;fill:rgb(92.158508%,58.039856%,50.588989%);fill-opacity:1;" d="M 115.871094 192.300781 C 115.871094 196.699219 112.558594 200.34375 108.242188 200.820312 C 110.296875 219.851562 119.253906 237.425781 133.507812 250.351562 C 147.984375 263.484375 166.753906 270.714844 186.363281 270.714844 C 207.371094 270.714844 227.105469 262.566406 241.941406 247.761719 C 256.773438 232.960938 264.941406 213.265625 264.941406 192.300781 C 264.941406 171.746094 257.0625 152.363281 242.746094 137.65625 C 241.136719 139.273438 238.945312 140.191406 236.644531 140.191406 C 231.90625 140.191406 228.054688 136.351562 228.054688 131.625 C 228.054688 129.871094 228.574219 128.203125 229.5625 126.773438 C 216.742188 118.34375 201.8125 113.890625 186.363281 113.890625 C 166.753906 113.890625 147.984375 121.121094 133.507812 134.253906 C 119.253906 147.179688 110.296875 164.753906 108.242188 183.785156 C 112.558594 184.261719 115.871094 187.90625 115.871094 192.300781 Z M 107.183594 200.359375 C 107.183594 200.242188 107.226562 200.125 107.304688 200.035156 C 107.394531 199.929688 107.523438 199.867188 107.660156 199.859375 C 111.699219 199.660156 114.863281 196.339844 114.863281 192.300781 C 114.863281 188.265625 111.699219 184.945312 107.660156 184.746094 C 107.523438 184.738281 107.394531 184.675781 107.304688 184.570312 C 107.214844 184.464844 107.175781 184.332031 107.1875 184.195312 C 109.160156 164.71875 118.269531 146.71875 132.832031 133.511719 C 147.496094 120.210938 166.503906 112.886719 186.363281 112.886719 C 202.191406 112.886719 217.472656 117.5 230.558594 126.230469 C 230.675781 126.308594 230.753906 126.429688 230.773438 126.570312 C 230.796875 126.707031 230.761719 126.847656 230.675781 126.957031 C 229.617188 128.300781 229.058594 129.914062 229.058594 131.625 C 229.058594 135.796875 232.460938 139.191406 236.644531 139.191406 C 238.835938 139.191406 240.917969 138.246094 242.355469 136.601562 C 242.449219 136.496094 242.582031 136.433594 242.71875 136.429688 C 242.859375 136.425781 242.996094 136.480469 243.09375 136.578125 C 257.832031 151.519531 265.949219 171.308594 265.949219 192.300781 C 265.949219 213.53125 257.671875 233.480469 242.652344 248.472656 C 227.628906 263.460938 207.636719 271.71875 186.363281 271.71875 C 166.503906 271.71875 147.496094 264.394531 132.832031 251.09375 C 118.269531 237.886719 109.160156 219.886719 107.1875 200.410156 C 107.1875 200.394531 107.183594 200.378906 107.183594 200.359375 "/></g><g clip-rule="nonzero" clip-path="url(#clip6)"><path style=" stroke:none;fill-rule:nonzero;fill:rgb(92.158508%,58.039856%,50.588989%);fill-opacity:1;" d="M 114.863281 192.300781 C 114.863281 188.265625 111.699219 184.945312 107.660156 184.746094 C 107.53125 184.738281 107.40625 184.734375 107.28125 184.734375 C 103.097656 184.734375 99.695312 188.128906 99.695312 192.300781 C 99.695312 196.476562 103.097656 199.871094 107.28125 199.871094 C 107.40625 199.871094 107.53125 199.867188 107.65625 199.859375 C 107.660156 199.859375 107.660156 199.859375 107.660156 199.859375 C 111.699219 199.660156 114.863281 196.339844 114.863281 192.300781 Z M 98.6875 192.300781 C 98.6875 187.574219 102.542969 183.730469 107.28125 183.730469 C 107.425781 183.730469 107.570312 183.734375 107.71875 183.746094 C 112.285156 183.96875 115.871094 187.726562 115.871094 192.300781 C 115.871094 196.875 112.289062 200.636719 107.714844 200.859375 C 107.570312 200.871094 107.425781 200.875 107.28125 200.875 C 102.542969 200.875 98.6875 197.03125 98.6875 192.300781 "/></g><path style=" stroke:none;fill-rule:nonzero;fill:rgb(92.158508%,58.039856%,50.588989%);fill-opacity:1;" d="M 203.808594 243.707031 C 203.808594 243.117188 203.742188 242.539062 203.609375 241.984375 C 202.808594 238.539062 199.773438 236.136719 196.222656 236.136719 C 192.039062 236.136719 188.636719 239.53125 188.636719 243.707031 C 188.636719 244.082031 188.664062 244.453125 188.714844 244.808594 C 189.257812 248.496094 192.484375 251.273438 196.222656 251.273438 C 200.40625 251.273438 203.808594 247.878906 203.808594 243.707031 Z M 188.21875 244.882812 L 188.21875 244.886719 Z M 187.632812 243.707031 C 187.632812 238.980469 191.488281 235.136719 196.222656 235.136719 C 200.242188 235.136719 203.679688 237.855469 204.589844 241.753906 C 204.738281 242.382812 204.8125 243.039062 204.8125 243.707031 C 204.8125 248.433594 200.960938 252.277344 196.222656 252.277344 C 191.988281 252.277344 188.335938 249.128906 187.722656 244.953125 C 187.664062 244.550781 187.632812 244.128906 187.632812 243.707031 "/><path style=" stroke:none;fill-rule:nonzero;fill:rgb(92.158508%,58.039856%,50.588989%);fill-opacity:1;" d="M 238.582031 192.300781 C 238.582031 178.375 233.152344 165.285156 223.296875 155.449219 C 213.4375 145.609375 200.320312 140.191406 186.363281 140.191406 C 172.402344 140.191406 159.285156 145.609375 149.429688 155.449219 C 139.570312 165.285156 134.140625 178.375 134.140625 192.300781 C 134.140625 206.230469 139.570312 219.320312 149.429688 229.15625 C 159.285156 238.996094 172.402344 244.414062 186.363281 244.414062 C 186.777344 244.414062 187.207031 244.40625 187.660156 244.394531 C 187.640625 244.167969 187.632812 243.9375 187.632812 243.707031 C 187.632812 238.980469 191.488281 235.136719 196.222656 235.136719 C 200.050781 235.136719 203.355469 237.605469 204.445312 241.210938 C 224.886719 233.691406 238.582031 214.105469 238.582031 192.300781 Z M 133.136719 192.300781 C 133.136719 178.105469 138.671875 164.765625 148.71875 154.738281 C 158.765625 144.710938 172.132812 139.191406 186.363281 139.191406 C 200.589844 139.191406 213.957031 144.710938 224.007812 154.738281 C 234.054688 164.765625 239.585938 178.105469 239.585938 192.300781 C 239.585938 214.714844 225.394531 234.820312 204.269531 242.339844 C 204.132812 242.390625 203.984375 242.378906 203.855469 242.308594 C 203.730469 242.242188 203.640625 242.121094 203.609375 241.980469 C 202.808594 238.539062 199.773438 236.136719 196.222656 236.136719 C 192.039062 236.136719 188.636719 239.53125 188.636719 243.707031 C 188.636719 244.082031 188.664062 244.453125 188.714844 244.808594 C 188.738281 244.949219 188.695312 245.09375 188.605469 245.203125 C 188.511719 245.3125 188.378906 245.378906 188.234375 245.382812 C 187.566406 245.40625 186.953125 245.414062 186.363281 245.414062 C 172.132812 245.414062 158.765625 239.894531 148.71875 229.867188 C 138.671875 219.839844 133.136719 206.5 133.136719 192.300781 "/></g></svg>